<svg width="123" height="32" viewBox="0 0 123 32" fill="none" xmlns="http://www.w3.org/2000/svg">
<g clip-path="url(#clip0_1003_25270)">
<path d="M16.0278 31.6997L12.2931 25.5198C12.2931 25.5198 12.1709 25.3864 12.1709 25.153V13.7046H10.7593V25.5087C10.8815 25.631 13.2268 29.6101 13.2268 29.6101H7.39142C7.39142 29.6101 9.74779 25.631 9.87006 25.5087V13.7046H8.45846V25.153C8.45846 25.3864 8.33619 25.5198 8.33619 25.5198L4.60156 31.6997H16.0278Z" fill="#A88435"/>
<path d="M14.8711 5.67975C14.8711 5.67975 15.5714 2.80097 13.0594 0.911428C13.0594 0.911428 12.059 0 10.1473 0C8.44667 0 7.43521 0.911428 7.43521 0.911428C5.13441 2.48975 5.73462 5.67975 5.73462 5.67975H14.8711Z" fill="#A88435"/>
<path d="M6.01182 6.48015H14.6037C14.6704 6.31343 14.726 6.15782 14.7815 5.97998H5.83398C5.88956 6.15782 5.94513 6.31343 6.01182 6.48015Z" fill="#A88435"/>
<path d="M14.4716 6.78027H6.14648C6.2354 6.95811 6.33544 7.12484 6.43547 7.28045H14.1826C14.2938 7.12484 14.3827 6.95811 14.4716 6.78027Z" fill="#A88435"/>
<path d="M6.99691 7.96948H13.6214C13.7437 7.84721 13.8548 7.71383 13.966 7.56934H6.65234C6.75238 7.71383 6.87464 7.84721 6.99691 7.96948Z" fill="#A88435"/>
<path d="M7.71129 8.56964H12.902C13.0354 8.48072 13.1687 8.38068 13.291 8.26953H7.32227C7.44453 8.38068 7.57791 8.48072 7.71129 8.56964Z" fill="#A88435"/>
<path d="M8.42383 8.96973C9.00181 9.22537 9.63536 9.36987 10.3023 9.36987C10.9692 9.36987 11.6027 9.22537 12.1807 8.96973H8.42383Z" fill="#A88435"/>
<path d="M19.2178 9.58105H12.182C12.182 9.58105 11.5373 9.58105 11.0149 9.93673C10.6148 10.2035 10.3369 10.837 10.3147 10.8704C10.2925 10.837 10.0146 10.2035 9.61445 9.93673C9.09205 9.58105 8.44738 9.58105 8.44738 9.58105H1.4116L0 11.8152H6.44668C6.44668 11.8152 6.63564 11.8152 6.74679 11.8263C6.93574 11.8596 7.26919 11.9597 7.61375 12.2153C8.0917 12.5488 8.22508 12.7266 8.34734 12.8489C8.40292 12.9044 8.55853 13.1045 8.55853 13.1045H12.0709C12.0709 13.1045 12.2265 12.9044 12.282 12.8489C12.3932 12.7266 12.5266 12.5488 13.0045 12.2153C13.3491 11.9597 13.6825 11.8596 13.8715 11.8263C14.0049 11.8152 14.1827 11.8152 14.1827 11.8152H20.6183L19.2178 9.58105Z" fill="#223A74"/>
<path d="M0.710938 12.4932V23.0968C0.710938 23.208 0.722053 23.308 0.733167 23.4081C0.844317 24.5307 1.2 25.3532 1.85578 26.4425C2.88947 28.1542 4.75679 29.3435 4.75679 29.3435L5.64598 27.9541C5.64598 27.9541 4.44557 27.3205 3.47857 25.8645C3.28961 25.5755 3.10066 25.3087 2.96728 25.0309C2.84501 24.7863 2.75609 24.5751 2.67829 24.3528C2.62271 24.1861 2.57825 24.0416 2.54491 23.9082C2.50045 23.7082 2.47822 23.5637 2.4671 23.3747C2.4671 23.3191 2.45599 23.0413 2.45599 23.0413V12.4932H0.710938Z" fill="#223A74"/>
<path d="M3.39258 12.4932V23.0413C3.39258 23.0413 3.39258 23.0968 3.40369 23.1413C3.40369 23.1969 3.40369 23.2636 3.41481 23.3303C3.41481 23.3636 3.41481 23.4192 3.43704 23.4414C3.47038 23.6081 3.49261 23.7526 3.58153 23.9749C3.7038 24.3306 3.91498 24.753 4.21509 25.2531C5.00425 26.5203 6.14909 27.0982 6.14909 27.0982L7.02717 25.7311C7.02717 25.7311 6.73818 25.5755 6.3825 25.2309C6.14909 25.0086 5.87122 24.7085 5.62669 24.364C5.38216 24.0083 5.24878 23.6415 5.15986 23.3636C5.10428 23.1413 5.08205 22.9523 5.08205 22.8412V12.4932H3.39258Z" fill="#223A74"/>
<path d="M19.9175 12.4932V23.0968C19.9175 23.208 19.9064 23.308 19.8952 23.4081C19.7841 24.5307 19.4284 25.3532 18.7726 26.4425C17.7389 28.1542 15.8716 29.3435 15.8716 29.3435L14.9824 27.9541C14.9824 27.9541 16.1828 27.3205 17.1498 25.8645C17.3388 25.5755 17.5278 25.3087 17.6611 25.0309C17.7834 24.7863 17.8723 24.5751 17.9501 24.3528C18.0057 24.1861 18.0502 24.0416 18.0835 23.9082C18.128 23.7082 18.1502 23.5637 18.1613 23.3747C18.1613 23.3191 18.1724 23.0413 18.1724 23.0413V12.4932H19.9175Z" fill="#223A74"/>
<path d="M17.2362 12.4932V23.0413C17.2362 23.0413 17.2362 23.0968 17.225 23.1413C17.225 23.1969 17.225 23.2636 17.2139 23.3303C17.2139 23.3636 17.2139 23.4192 17.1917 23.4414C17.1584 23.6081 17.1361 23.7526 17.0472 23.9749C16.9249 24.3306 16.7138 24.753 16.4137 25.2531C15.6245 26.5203 14.4796 27.0982 14.4796 27.0982L13.6016 25.7311C13.6016 25.7311 13.8906 25.5755 14.2462 25.2309C14.4796 25.0086 14.7575 24.7085 15.002 24.364C15.2466 24.0083 15.38 23.6415 15.4689 23.3636C15.5245 23.1413 15.5467 22.9523 15.5467 22.8412V12.4932H17.2362Z" fill="#223A74"/>
<path d="M27.23 31.5332H26.5853V26.9538H25.3516V26.3647H28.4638V26.9538H27.23V31.5332Z" fill="#223A74"/>
<path d="M29.0391 26.3647H31.84V26.9538H29.6837V28.3988H31.7733V28.9879H29.6837V30.9441H31.84V31.5332H29.0391V26.3647Z" fill="#223A74"/>
<path d="M36.5089 27.3538C36.131 27.0315 35.6308 26.8425 35.1306 26.8425C33.9636 26.8425 33.0744 27.8095 33.0744 28.9544C33.0744 30.0992 33.9636 31.0551 35.1195 31.0551C35.6308 31.0551 36.1199 30.8661 36.5089 30.5216V31.2774C36.1087 31.5108 35.5975 31.6442 35.1417 31.6442C33.6523 31.6442 32.4297 30.4771 32.4297 28.9766C32.4297 27.4761 33.6634 26.2534 35.1973 26.2534C35.653 26.2534 36.1087 26.3646 36.5089 26.6091V27.3538Z" fill="#223A74"/>
<path d="M40.4332 28.4544V26.3647H41.0779V31.5443H40.4332V29.0546H37.9546V31.5443H37.2988V26.3647H37.9546V28.4544H40.4332Z" fill="#223A74"/>
<path d="M42.0234 26.1201L45.9359 30.1882V26.3646H46.5695V31.7443L42.6681 27.6873V31.5331H42.0234V26.1201Z" fill="#223A74"/>
<path d="M52.0276 28.9545C52.0276 27.8207 51.1607 26.8649 49.938 26.8649C48.7154 26.8649 47.8595 27.8207 47.8595 28.9545C47.8595 30.0882 48.8154 31.0441 49.938 31.0441C51.0606 31.0441 52.0276 30.1327 52.0276 28.9545ZM52.6723 28.9545C52.6723 30.4883 51.4608 31.6443 49.938 31.6443C48.4153 31.6443 47.2148 30.4883 47.2148 28.9545C47.2148 27.4206 48.4597 26.2646 49.938 26.2646C51.4163 26.2646 52.6723 27.4762 52.6723 28.9545Z" fill="#223A74"/>
<path d="M54.0275 30.9441H55.6058V31.5332H53.3828V26.3647H54.0275V30.9441Z" fill="#223A74"/>
<path d="M60.5491 28.9545C60.5491 27.8207 59.6821 26.8649 58.4595 26.8649C57.2368 26.8649 56.381 27.8207 56.381 28.9545C56.381 30.0882 57.3369 31.0441 58.4595 31.0441C59.5821 31.0441 60.5491 30.1327 60.5491 28.9545ZM61.1938 28.9545C61.1938 30.4883 59.9822 31.6443 58.4595 31.6443C56.9367 31.6443 55.7363 30.4883 55.7363 28.9545C55.7363 27.4206 56.9812 26.2646 58.4595 26.2646C59.9378 26.2646 61.1938 27.4762 61.1938 28.9545Z" fill="#223A74"/>
<path d="M66.6428 28.9321V29.1433C66.6428 30.5549 65.6313 31.6442 64.1753 31.6442C62.7192 31.6442 61.541 30.3993 61.541 28.9655C61.541 27.5316 62.7414 26.2534 64.242 26.2534C65.0533 26.2534 65.8536 26.6202 66.3649 27.276L65.9092 27.6872C65.5424 27.1871 64.9089 26.8425 64.2753 26.8425C63.1082 26.8425 62.1968 27.7873 62.1968 28.9432C62.1968 30.0325 63.0971 31.0551 64.2197 31.0551C65.0311 31.0551 65.8981 30.366 65.9203 29.5212H64.5754V28.9321H66.6428Z" fill="#223A74"/>
<path d="M66.8223 26.3647H67.567L68.8452 28.5766L70.1234 26.3647H70.8681L69.1786 29.288V31.5332H68.5229V29.288L66.8223 26.3647Z" fill="#223A74"/>
<path d="M26.7847 15.0942H26.14V10.5149H24.9062V9.92578H28.0184V10.5149H26.7847V15.0942Z" fill="#223A74"/>
<path d="M31.6735 12.0042V9.91455H32.3182V15.0941H31.6735V12.6044H29.1948V15.0941H28.5391V9.91455H29.1948V12.0042H31.6735Z" fill="#223A74"/>
<path d="M33.3301 9.92578H36.131V10.5149H33.9747V11.9598H36.0644V12.5489H33.9747V14.5051H36.131V15.0942H33.3301V9.92578Z" fill="#223A74"/>
<path d="M42.1481 12.0042V9.91455H42.7928V15.0941H42.1481V12.6044H39.6695V15.0941H39.0137V9.91455H39.6695V12.0042H42.1481Z" fill="#223A74"/>
<path d="M48.2581 12.5043C48.2581 11.3705 47.3911 10.4147 46.1685 10.4147C44.9458 10.4147 44.09 11.3705 44.09 12.5043C44.09 13.638 45.0459 14.5939 46.1685 14.5939C47.2911 14.5939 48.2581 13.6825 48.2581 12.5043ZM48.9028 12.5043C48.9028 14.0381 47.6912 15.1941 46.1685 15.1941C44.6457 15.1941 43.4453 14.0381 43.4453 12.5043C43.4453 10.9704 44.6902 9.81445 46.1685 9.81445C47.6468 9.81445 48.9028 11.026 48.9028 12.5043Z" fill="#223A74"/>
<path d="M49.5391 9.66992L53.4515 13.738V9.91445H54.0851V15.2941L50.1837 11.2371V15.0829H49.5391V9.66992Z" fill="#223A74"/>
<path d="M59.842 12.4819V12.6931C59.842 14.1047 58.8305 15.194 57.3745 15.194C55.9184 15.194 54.7402 13.9491 54.7402 12.5153C54.7402 11.0814 55.9407 9.80322 57.4412 9.80322C58.2526 9.80322 59.0528 10.17 59.5641 10.8258L59.1084 11.2371C58.7416 10.7369 58.1081 10.3923 57.4745 10.3923C56.3074 10.3923 55.3849 11.3371 55.3849 12.493C55.3849 13.5823 56.2963 14.6049 57.4189 14.6049C58.2303 14.6049 59.0973 13.9158 59.1195 13.071H57.7746V12.4819H59.842Z" fill="#223A74"/>
<path d="M65.4776 9.92578H66.3335L63.9882 12.2488L66.3557 15.0942H65.4888L63.5325 12.6934L63.2658 12.9379V15.0942H62.6211V9.92578H63.2658V12.171L65.4776 9.92578Z" fill="#223A74"/>
<path d="M71.2776 12.5043C71.2776 11.3705 70.4218 10.4147 69.188 10.4147C67.9543 10.4147 67.1095 11.3705 67.1095 12.5043C67.1095 13.638 68.0654 14.5939 69.188 14.5939C70.3106 14.5939 71.2776 13.6825 71.2776 12.5043ZM71.9223 12.5043C71.9223 14.0381 70.7108 15.1941 69.188 15.1941C67.6653 15.1941 66.4648 14.0381 66.4648 12.5043C66.4648 10.9704 67.7097 9.81445 69.188 9.81445C70.6663 9.81445 71.9223 11.026 71.9223 12.5043Z" fill="#223A74"/>
<path d="M72.5703 9.66992L76.4828 13.738V9.91445H77.1163V15.2941L73.215 11.2371V15.0829H72.5703V9.66992Z" fill="#223A74"/>
<path d="M82.8693 12.4819V12.6931C82.8693 14.1047 81.8579 15.194 80.4018 15.194C78.9458 15.194 77.7676 13.9491 77.7676 12.5153C77.7676 11.0814 78.968 9.80322 80.4685 9.80322C81.2799 9.80322 82.0802 10.17 82.5915 10.8258L82.1358 11.2371C81.769 10.7369 81.1354 10.3923 80.5019 10.3923C79.3348 10.3923 78.4234 11.3371 78.4234 12.493C78.4234 13.5823 79.3237 14.6049 80.4463 14.6049C81.2577 14.6049 82.1246 13.9158 82.1469 13.071H80.802V12.4819H82.8693Z" fill="#223A74"/>
<path d="M80.5158 28.9321V29.1433C80.5158 30.5549 79.5044 31.6553 78.0483 31.6553C76.5923 31.6553 75.4141 30.3993 75.4141 28.9655C75.4141 27.5316 76.6145 26.2534 78.115 26.2534C78.9264 26.2534 79.7267 26.6202 80.238 27.2538L79.7822 27.6872C79.4155 27.176 78.7819 26.8425 78.1372 26.8425C76.9702 26.8425 76.0587 27.7873 76.0587 28.9432C76.0587 30.0325 76.9702 31.0662 78.0817 31.0662C78.893 31.0662 79.7711 30.366 79.7934 29.5212H78.4485V28.9321H80.5158Z" fill="#223A74"/>
<path d="M81.7808 26.3647V29.4214C81.7808 30.2661 82.0364 31.0442 83.0368 31.0442C84.0371 31.0442 84.3039 30.2661 84.3039 29.4214V26.3647H84.9486V29.6437C84.9486 30.7774 84.2372 31.6555 83.0368 31.6555C81.8364 31.6555 81.125 30.7774 81.125 29.6437V26.3647H81.7808Z" fill="#223A74"/>
<path d="M87.8609 27.5542L86.9272 29.6549H88.7834L87.8609 27.5542ZM86.6604 30.244L86.0602 31.5445H85.3711L87.8609 26.1426L90.3506 31.5445H89.6504L89.0613 30.244H86.6604Z" fill="#223A74"/>
<path d="M90.7988 26.1201L94.7224 30.1882V26.3646H95.3671V31.7554L91.4546 27.6873V31.5442H90.7988V26.1201Z" fill="#223A74"/>
<path d="M101.11 28.9321V29.1433C101.11 30.5549 100.098 31.6553 98.6421 31.6553C97.186 31.6553 96.0078 30.3993 96.0078 28.9655C96.0078 27.5316 97.2082 26.2534 98.7088 26.2534C99.5201 26.2534 100.32 26.6202 100.832 27.2538L100.376 27.6872C100.009 27.176 99.3757 26.8425 98.731 26.8425C97.5639 26.8425 96.6525 27.7873 96.6525 28.9432C96.6525 30.0325 97.5639 31.0662 98.6754 31.0662C99.4868 31.0662 100.365 30.366 100.387 29.5212H99.0422V28.9321H101.11Z" fill="#223A74"/>
<path d="M105.09 30.9552V31.5443H101.389L104.034 26.965H101.767V26.3647H105.09L102.445 30.9552H105.09Z" fill="#223A74"/>
<path d="M108.791 28.4544V26.3647H109.435V31.5443H108.791V29.0546H106.301V31.5443H105.656V26.3647H106.301V28.4544H108.791Z" fill="#223A74"/>
<path d="M114.904 28.9544C114.904 27.8095 114.037 26.8647 112.814 26.8647C111.592 26.8647 110.725 27.8095 110.725 28.9544C110.725 30.0992 111.681 31.044 112.814 31.044C113.948 31.044 114.904 30.1325 114.904 28.9544ZM115.549 28.9544C115.549 30.4882 114.337 31.6553 112.814 31.6553C111.292 31.6553 110.08 30.4882 110.08 28.9544C110.08 27.4205 111.314 26.2534 112.814 26.2534C114.315 26.2534 115.549 27.4761 115.549 28.9544Z" fill="#223A74"/>
<path d="M116.804 26.3647V29.4214C116.804 30.2661 117.06 31.0442 118.06 31.0442C119.061 31.0442 119.327 30.2661 119.327 29.4214V26.3647H119.972V29.6437C119.972 30.7774 119.261 31.6555 118.06 31.6555C116.86 31.6555 116.148 30.7774 116.148 29.6437V26.3647H116.804Z" fill="#223A74"/>
<path d="M74.5679 25.8867C74.2901 26.4202 74.0789 26.8537 73.9677 27.1872C73.7677 27.754 73.6899 28.3209 73.6899 28.9433C73.6899 29.9326 73.9677 30.944 74.5568 31.9888H74.09C73.7677 31.5665 73.5009 31.0774 73.2897 30.5328C73.0785 29.9881 72.9785 29.4546 72.9785 28.9322C72.9785 28.1986 73.1675 27.4873 73.5343 26.787C73.7343 26.4091 73.9233 26.0979 74.09 25.8867H74.5679Z" fill="#223A74"/>
<path d="M122.754 28.9544C122.754 29.6769 122.565 30.3883 122.209 31.0996C122.009 31.4442 121.82 31.7443 121.642 32H121.164C121.442 31.4664 121.653 31.0441 121.764 30.7106C121.953 30.1438 122.053 29.5547 122.053 28.9322C122.053 27.9652 121.764 26.9426 121.164 25.8867H121.653C121.964 26.3091 122.231 26.7981 122.442 27.3539C122.653 27.8985 122.754 28.432 122.754 28.9544Z" fill="#223A74"/>
<path d="M25.9435 18.1396V21.1851C25.9435 22.0188 26.1991 22.7968 27.1995 22.7968C28.1998 22.7968 28.4555 22.0188 28.4555 21.1851V18.1396H29.1113V21.4074C29.1113 22.5523 28.3999 23.4193 27.1995 23.4193C25.9991 23.4193 25.2988 22.5523 25.2988 21.4074V18.1396H25.9435Z" fill="#223A74"/>
<path d="M30.1113 17.895L34.0238 21.9631V18.1395H34.6574V23.5192L30.756 19.4622V23.308H30.1113V17.895Z" fill="#223A74"/>
<path d="M36.5855 18.1396H35.9297V23.3081H36.5855V18.1396Z" fill="#223A74"/>
<path d="M39.3475 21.9632L40.8925 18.1396H41.6039L39.3475 23.586L37.0801 18.1396H37.8025L39.3475 21.9632Z" fill="#223A74"/>
<path d="M42.1152 18.1396H44.9273V18.7287H42.771V20.1737H44.8606V20.7628H42.771V22.719H44.9273V23.3081H42.1152V18.1396Z" fill="#223A74"/>
<path d="M46.437 20.5849H46.6371C47.304 20.5849 48.0376 20.4627 48.0376 19.6513C48.0376 18.8399 47.2595 18.7176 46.6038 18.7176H46.437V20.5849ZM49.0268 23.3081H48.2377L46.7038 21.1185H46.437V23.3081H45.7812V18.1396H46.5704C47.0372 18.1396 47.5374 18.1396 47.9487 18.3842C48.3822 18.6287 48.6378 19.1178 48.6378 19.6179C48.6378 20.3515 48.1487 20.9851 47.3818 21.0629L49.0268 23.3081Z" fill="#223A74"/>
<path d="M52.0273 19.1288C51.8383 18.8065 51.5938 18.6398 51.1937 18.6398C50.7713 18.6398 50.3156 18.9176 50.3156 19.3733C50.3156 19.7846 50.7157 19.9958 51.0492 20.1181L51.416 20.2625C52.1607 20.5515 52.7164 20.9517 52.7164 21.8186C52.7164 22.7523 51.9828 23.4303 51.0492 23.4303C50.2044 23.4303 49.5486 22.8079 49.4375 21.9854L50.0933 21.8409C50.0822 22.4077 50.5379 22.819 51.1047 22.819C51.6716 22.819 52.0606 22.341 52.0606 21.8186C52.0606 21.2629 51.616 21.0072 51.1603 20.8294L50.8158 20.6738C50.2044 20.4293 49.6709 20.0958 49.6709 19.3733C49.6709 18.5397 50.4156 18.0396 51.2048 18.0396C51.7828 18.0396 52.2607 18.3174 52.5497 18.8176L52.0273 19.1288Z" fill="#223A74"/>
<path d="M54.2072 18.1396H53.5625V23.3081H54.2072V18.1396Z" fill="#223A74"/>
<path d="M56.8081 23.3081H56.1634V18.7287H54.9297V18.1396H58.0419V18.7287H56.8081V23.3081Z" fill="#223A74"/>
<path d="M58.2734 18.1396H59.0181L60.2964 20.3515L61.5746 18.1396H62.3304L60.6298 21.0629V23.3081H59.974V21.0629L58.2734 18.1396Z" fill="#223A74"/>
<path d="M69.4905 20.7294C69.4905 19.5956 68.6235 18.6398 67.4009 18.6398C66.1783 18.6398 65.3224 19.5956 65.3224 20.7294C65.3224 21.8631 66.2783 22.819 67.4009 22.819C68.5235 22.819 69.4905 21.9076 69.4905 20.7294ZM70.1352 20.7294C70.1352 22.2632 68.9237 23.4192 67.4009 23.4192C65.8782 23.4192 64.6777 22.2632 64.6777 20.7294C64.6777 19.1955 65.9226 18.0396 67.4009 18.0396C68.8792 18.0396 70.1352 19.2511 70.1352 20.7294Z" fill="#223A74"/>
<path d="M71.5685 18.7287V20.1848H73.3802V20.7739H71.5685V23.3081H70.9238V18.1396H73.4469V18.7287H71.5685Z" fill="#223A74"/>
<path d="M78.9609 19.1288C78.7719 18.8065 78.5274 18.6398 78.1273 18.6398C77.7049 18.6398 77.2603 18.9176 77.2603 19.3733C77.2603 19.7846 77.6493 19.9958 77.9828 20.1181L78.3496 20.2625C79.0943 20.5515 79.65 20.9517 79.65 21.8186C79.65 22.7523 78.9164 23.4303 77.9828 23.4303C77.138 23.4303 76.4822 22.8079 76.3711 21.9854L77.0269 21.8409C77.0158 22.4077 77.4715 22.819 78.0383 22.819C78.6052 22.819 78.9942 22.341 78.9942 21.8186C78.9942 21.2629 78.5496 21.0072 78.0939 20.8294L77.7493 20.6738C77.138 20.4293 76.6045 20.0958 76.6045 19.3733C76.6045 18.5397 77.3492 18.0396 78.1384 18.0396C78.7164 18.0396 79.1943 18.3174 79.4833 18.8176L78.9609 19.1288Z" fill="#223A74"/>
<path d="M84.3683 19.1287C83.9904 18.8064 83.4902 18.6174 82.99 18.6174C81.8229 18.6174 80.9337 19.5844 80.9337 20.7293C80.9337 21.8741 81.8229 22.83 82.9789 22.83C83.4902 22.83 83.9792 22.641 84.3683 22.2965V23.0523C83.9681 23.2857 83.4568 23.4191 83.0011 23.4191C81.5117 23.4191 80.2891 22.252 80.2891 20.7515C80.2891 19.251 81.5228 18.0283 83.0567 18.0283C83.5124 18.0283 83.9681 18.1395 84.3683 18.384V19.1287Z" fill="#223A74"/>
<path d="M86.0724 18.1396H85.4277V23.3081H86.0724V18.1396Z" fill="#223A74"/>
<path d="M87.3711 18.1396H90.1721V18.7287H88.0158V20.1737H90.1054V20.7628H88.0158V22.719H90.1721V23.3081H87.3711V18.1396Z" fill="#223A74"/>
<path d="M91.2188 17.895L95.1312 21.9631V18.1395H95.7648V23.5192L91.8634 19.4622V23.308H91.2188V17.895Z" fill="#223A74"/>
<path d="M100.62 19.1287C100.242 18.8064 99.7421 18.6174 99.242 18.6174C98.0749 18.6174 97.1857 19.5844 97.1857 20.7293C97.1857 21.8741 98.0749 22.83 99.2308 22.83C99.7421 22.83 100.231 22.641 100.62 22.2965V23.0523C100.22 23.2857 99.7088 23.4191 99.2531 23.4191C97.7637 23.4191 96.541 22.252 96.541 20.7515C96.541 19.251 97.7748 18.0283 99.3086 18.0283C99.7644 18.0283 100.22 18.1395 100.62 18.384V19.1287Z" fill="#223A74"/>
<path d="M101.559 18.1396H104.36V18.7287H102.203V20.1737H104.293V20.7628H102.203V22.719H104.36V23.3081H101.559V18.1396Z" fill="#223A74"/>
<path d="M109.873 19.3623L108.939 21.4519H110.795L109.873 19.3623ZM108.672 22.041L108.083 23.3303H107.383L109.873 17.9507L112.362 23.3303H111.662L111.062 22.041H108.672Z" fill="#223A74"/>
<path d="M112.938 17.9175L116.85 21.9856V18.162H117.484V23.5417L113.582 19.4847V23.3305H112.938V17.9175Z" fill="#223A74"/>
<path d="M119.137 22.741H119.37C120.693 22.741 121.849 22.2408 121.849 20.7403C121.849 19.2398 120.693 18.7507 119.37 18.7507H119.137V22.741ZM118.492 18.1616H119.57C121.171 18.1616 122.482 18.9952 122.482 20.7069C122.482 22.4187 121.193 23.3301 119.548 23.3301H118.492V18.1616Z" fill="#223A74"/>
<path d="M28.3098 2.65651V3.95696H30.0659C29.3435 3.6902 28.7544 3.2456 28.3098 2.65651ZM26.2646 6.27999H29.7769V5.65755H26.2646V6.27999ZM29.7769 4.55717H26.2646V5.09069H29.7769V4.55717ZM26.0201 3.95696H27.6429V2.66762C27.2316 3.2456 26.687 3.6902 26.0201 3.95696ZM30.4327 4.12368V7.19142H29.7769V6.85797H26.2757V7.19142H25.6088V4.15703C25.4977 4.2126 25.2865 4.27929 25.0086 4.37933L24.6641 3.74578C25.531 3.54571 26.2757 3.1678 26.9204 2.64539H24.7196V2.0563H27.6429V1.48944C26.5758 1.51167 25.8089 1.52278 25.3421 1.52278L25.1087 0.878114C25.3865 0.878114 25.72 0.878114 26.1201 0.878114C28.0097 0.878114 29.4435 0.766964 30.4105 0.566895L30.7217 1.13376C30.0771 1.26714 29.2768 1.36717 28.3098 1.45609V2.04519H31.3108V2.63428H29.0211C29.5658 3.14557 30.3438 3.51236 31.3775 3.71243L31.0552 4.3571C30.9663 4.31264 30.8662 4.26818 30.744 4.24595C30.6328 4.2126 30.5328 4.16814 30.4327 4.11257" fill="#223A74"/>
<path d="M37.1007 2.62302H38.3901V1.93389H37.1007V2.62302ZM37.2563 3.21212C37.1452 3.45664 37.0118 3.67894 36.834 3.85678H38.6457C38.4901 3.67894 38.3456 3.46776 38.2122 3.21212H37.2563ZM36.7117 5.10166H38.3456V4.41253H36.7117V5.10166ZM35.5002 1.3448H36.4449V0.600098H37.1007V1.3448H38.3901V0.600098H39.0347V1.3448H40.2129V1.90055H39.0347V2.62302H40.3129V3.21212H38.9569C39.1459 3.60114 39.6238 3.97905 40.3908 4.35696L40.0906 4.9794C39.6572 4.72375 39.2904 4.46811 39.0125 4.21246V5.65741H36.7117V6.10201C36.7117 6.26873 36.7895 6.35765 36.9673 6.35765H39.0792C39.2793 6.35765 39.4015 6.27985 39.4349 6.13535C39.4571 5.99086 39.5127 5.7241 39.546 5.3573L40.224 5.60183C40.1462 6.25762 40.0462 6.64664 39.9017 6.76891C39.7905 6.9134 39.546 6.96898 39.1903 6.96898H36.8784C36.5672 6.96898 36.3671 6.9134 36.2338 6.80225C36.1226 6.67999 36.0559 6.4688 36.0559 6.14647V4.56814C35.9448 4.65706 35.7225 4.81267 35.4112 5.01274L35 4.41253C35.7892 4.06797 36.2893 3.67894 36.5005 3.23435H35.3446V2.63414H36.4449V1.92278H35.5002V1.54487L35.0667 2.07839C34.6777 1.72271 34.322 1.45595 33.9996 1.25588L34.4776 0.733477C34.8777 0.989122 35.2223 1.23365 35.5002 1.43372V1.3448ZM34.811 3.85678C34.422 3.53445 34.0886 3.27881 33.8107 3.10097L34.2331 2.56745C34.5665 2.74529 34.9222 2.9787 35.289 3.25658L34.811 3.85678ZM35.2445 5.00163C35.0445 5.76856 34.7443 6.4688 34.3442 7.10235L33.7773 6.52438C34.1886 5.93528 34.4776 5.31284 34.6221 4.64595L35.2445 5.00163Z" fill="#223A74"/>
<path d="M47.5382 2.45658C47.0158 2.03421 46.5823 1.72299 46.26 1.52292L46.6823 1.0561C46.9824 1.23393 47.427 1.52292 47.9828 1.92306L47.5382 2.45658ZM47.4159 4.16829C46.9269 3.76815 46.4934 3.4347 46.1155 3.2124L46.5378 2.75669C46.8935 2.94564 47.3159 3.2124 47.8494 3.62365L47.4159 4.16829ZM45.8598 5.60212V4.94633L48.2495 4.59066V0.533691H48.9053V4.51285L49.5389 4.41282V5.04637L48.9053 5.15752V7.18044H48.2495V5.23532L45.8598 5.60212ZM44.2148 1.55627C43.9592 1.60073 43.5924 1.64519 43.1144 1.67853L42.9588 1.07833C44.0258 1.03387 44.9373 0.867141 45.7042 0.578151L45.9487 1.15613C45.6042 1.26728 45.2485 1.36731 44.8706 1.45623V2.43435H45.9487V3.04567H44.8706V3.10125C45.4041 3.60142 45.8042 3.99045 46.071 4.27944L45.6709 4.87965C45.5375 4.69069 45.393 4.51285 45.2485 4.34613C45.1262 4.20163 45.004 4.04602 44.8706 3.8793V7.15821L44.2148 7.18044V4.27944C44.037 4.73515 43.7146 5.25755 43.2478 5.85776L42.8477 5.21309C43.4479 4.5462 43.8925 3.82372 44.1926 3.04567H42.8921V2.43435H44.2148V1.55627Z" fill="#223A74"/>
<path d="M54.5842 2.63405H53.7395V3.87892C54.1285 3.75666 54.3953 3.65663 54.5731 3.56771V4.26795C54.4286 4.34575 54.1507 4.4569 53.7395 4.59028V6.3131C53.7395 6.64655 53.7061 6.86885 53.595 6.98C53.5061 7.09115 53.2726 7.14673 52.9281 7.14673H52.3612L52.1945 6.43537L52.8169 6.4576C52.9725 6.4576 53.0503 6.37979 53.0503 6.22418V4.79035C52.6502 4.89039 52.3279 4.95708 52.0945 5.02377L51.9277 4.26795C52.339 4.21237 52.7169 4.14568 53.0503 4.05676V2.63405H51.9944V1.98938H53.0503V0.544434H53.7506V1.98938H54.5953V1.54478H56.1181V0.544434H56.8294V1.54478H58.5078V2.17833H56.8294V3.12311H58.2633V3.7122C58.1966 3.95673 58.041 4.29018 57.7964 4.71255C57.5519 5.1238 57.2851 5.44614 57.0184 5.67955C57.4963 6.05746 58.0187 6.33533 58.6301 6.50206L58.2633 7.16896C57.6408 6.95777 57.0517 6.61321 56.496 6.11303C55.7513 6.6799 55.0177 7.03558 54.3508 7.18007L53.9618 6.5354C54.6398 6.39091 55.3289 6.06857 56.0069 5.62397C55.6401 5.25718 55.2845 4.75701 54.9288 4.12345L55.529 3.89004C55.8513 4.46802 56.1737 4.91262 56.5071 5.23495C56.985 4.85704 57.3296 4.36798 57.5408 3.77889H54.7176V3.12311H56.1181V2.17833H54.5953V2.63405H54.5842Z" fill="#223A74"/>
<path d="M65.2642 3.06765C65.3643 3.64563 65.631 4.24583 66.0312 4.87939C66.4313 5.50183 66.9871 6.04646 67.6984 6.50217L67.1427 7.15796C65.8756 6.32433 64.9864 4.96831 64.5195 3.06765H64.4084C64.0861 4.76824 63.1302 6.13538 61.5296 7.16907L60.9961 6.50217C61.663 6.12426 62.241 5.61298 62.73 5.00165C63.208 4.37921 63.5081 3.72343 63.6192 3.07876H61.1628V2.32294H63.7415C63.8082 1.90058 63.8304 1.31148 63.8304 0.555664H64.5862C64.5862 1.36706 64.564 1.95615 64.5195 2.32294H67.5428V3.07876H65.2642V3.06765Z" fill="#223A74"/>
<path d="M81.8161 0.489258C81.5049 1.07835 81.2715 1.56741 81.1381 1.92309C80.938 2.56776 80.8269 3.22354 80.8269 3.90155C80.8269 5.00194 81.1603 6.12455 81.805 7.30273H81.2826C80.9158 6.81368 80.6268 6.28016 80.3823 5.67995C80.16 5.06863 80.0488 4.46842 80.0488 3.87932C80.0488 3.06793 80.2489 2.27877 80.6602 1.47849C80.8825 1.07835 81.0936 0.744902 81.2826 0.489258H81.8161Z" fill="#223A74"/>
<path d="M98.3648 0.5H99.0762V7.19121H98.3648V0.5ZM97.5312 4.33466C97.4534 3.72334 97.2533 3.04533 96.9087 2.32285L97.5312 2.07833C97.8535 2.82303 98.0869 3.50104 98.2536 4.13459L97.5312 4.33466ZM96.0862 0.65561H96.7754V6.9578H96.0862V0.65561ZM95.2748 4.40135C95.1192 3.50104 94.9192 2.82303 94.708 2.36731L95.3526 2.1339C95.6083 2.81191 95.8083 3.50104 95.964 4.22351L95.2748 4.40135ZM93.2075 7.05783L92.585 6.49097C93.0185 6.17975 93.3519 5.77961 93.5965 5.31278C93.8299 4.83484 93.9522 4.10125 93.9522 3.11202V0.58892H94.6524V3.60108C94.6524 5.09048 94.1745 6.22421 93.2075 7.05783ZM93.5965 2.23394C93.5409 2.94529 93.4075 3.66777 93.1741 4.41247L92.4961 4.14571C92.7517 3.55662 92.9073 2.86749 92.9407 2.08944L93.5965 2.23394Z" fill="#223A74"/>
<path d="M102.775 3.91267C102.775 4.71295 102.564 5.51322 102.153 6.30239C101.941 6.6803 101.741 7.01374 101.53 7.30273H101.008C101.319 6.71364 101.541 6.2357 101.675 5.8689C101.897 5.23535 102.008 4.56845 102.008 3.89044C102.008 2.80117 101.675 1.66744 101.008 0.489258H101.541C101.897 0.956087 102.186 1.50072 102.419 2.12316C102.653 2.73448 102.775 3.33469 102.775 3.91267Z" fill="#223A74"/>
<path d="M73.2213 0.5C73.4658 0.844564 73.6993 1.23359 73.9104 1.65596L73.2991 1.95606C73.0991 1.53369 72.8545 1.13355 72.5989 0.800104L73.2213 0.5ZM71.4763 3.05644H75.3776V3.65665C74.9219 3.95676 74.4106 4.24574 73.8438 4.50139V4.75703H76.5336V5.4017H73.8438V6.49097C73.8438 6.91334 73.6215 7.12452 73.1657 7.12452H72.2543L72.0987 6.5132H72.9323C73.0991 6.5132 73.1657 6.43539 73.1657 6.25755V5.4017H70.3203V4.75703H73.1657V4.2124C73.677 4.00122 74.0772 3.81226 74.3773 3.65665H71.4763V3.05644ZM76.5336 1.96718V3.69H75.8556V2.61184H70.9872V3.69H70.3203V1.96718H71.5985C71.3762 1.58927 71.1317 1.2447 70.8872 0.933484L71.5096 0.644495C71.7653 0.977944 71.9987 1.33362 72.221 1.73376L71.7653 1.96718H74.4551C74.7663 1.53369 75.0108 1.04463 75.222 0.533345L75.9334 0.788989C75.6888 1.25582 75.4554 1.64484 75.2109 1.96718H76.5336Z" fill="#223A74"/>
<path d="M87.1511 0.433594C87.2734 0.678123 87.3956 0.944882 87.5068 1.24499H90.141V1.923H84.7614V3.45687C84.7392 5.04631 84.5058 6.33564 84.05 7.29153L83.4609 6.78024C83.85 5.97996 84.05 4.86847 84.0611 3.45687V1.24499H86.7399C86.6287 1.00046 86.5064 0.755928 86.3842 0.566973L87.1511 0.433594Z" fill="#223A74"/>
</g>
<defs>
<clipPath id="clip0_1003_25270">
<rect width="122.754" height="32" fill="white"/>
</clipPath>
</defs>
</svg>
