<svg width="114" height="32" viewBox="0 0 114 32" fill="none" xmlns="http://www.w3.org/2000/svg">
<g clip-path="url(#clip0_1003_25196)">
<path d="M10.5449 29.6775L10.5208 29.6856C10.3884 29.6174 10.228 29.5372 10.0355 29.4529C9.84694 29.3687 9.64639 29.2804 9.4338 29.1922L9.42578 29.1681L9.46589 29.0799L9.48996 29.0719C9.5421 29.0879 9.59023 29.108 9.63837 29.124C9.7226 29.1561 9.77875 29.1721 9.80683 29.1721C9.82688 29.1721 9.84694 29.1601 9.87101 29.1401C9.91112 29.0999 10.0034 28.9235 10.1438 28.6066L10.3042 28.2496C10.3523 28.1413 10.4125 28.0049 10.4847 27.8365L10.5328 27.7282C10.5569 27.68 10.5569 27.652 10.5328 27.6439C10.5248 27.6439 10.4887 27.6359 10.4325 27.6399C10.2721 27.6399 10.1357 27.6399 10.0234 27.648L10.0114 27.6319C10.0314 27.5758 10.0475 27.5116 10.0635 27.4354L10.0716 27.4233C10.3724 27.4675 10.7133 27.5036 11.0944 27.5236L11.1144 27.5597C11.0863 27.6159 11.0422 27.6961 10.9861 27.8044C10.962 27.8445 10.9099 27.9568 10.8216 28.1373L10.5609 28.7029C10.3764 29.108 10.2882 29.3286 10.2882 29.3647C10.2882 29.3887 10.2962 29.4128 10.3122 29.4248C10.3403 29.4489 10.4245 29.5011 10.5689 29.5733L10.581 29.5933L10.5408 29.6815L10.5449 29.6775Z" fill="#9B0000"/>
<path d="M14.9002 30.0103C14.8841 30.1306 14.844 30.2389 14.7839 30.3272C14.6675 30.4956 14.4991 30.5999 14.2785 30.636C14.1862 30.652 14.0819 30.652 13.9576 30.636C13.6929 30.5999 13.5003 30.4836 13.384 30.287C13.3319 30.1988 13.3118 30.0905 13.3319 29.9581C13.3519 29.7977 13.4281 29.6774 13.5565 29.5931C13.5966 29.5651 13.6848 29.529 13.8212 29.4848C13.6046 29.3364 13.5084 29.1519 13.5364 28.9353C13.5685 28.6907 13.7169 28.5302 13.9817 28.446C14.098 28.4139 14.2223 28.4019 14.3587 28.4219C14.5592 28.446 14.7117 28.5142 14.816 28.6225C14.9162 28.7227 14.9523 28.8431 14.9363 28.9835C14.9122 29.172 14.7799 29.3124 14.5392 29.4006C14.6956 29.4848 14.7999 29.5771 14.8561 29.6774C14.9082 29.7656 14.9242 29.8819 14.9042 30.0183L14.9002 30.0103ZM14.483 30.1386C14.5031 29.9862 14.4429 29.8619 14.3025 29.7656C14.2103 29.7014 14.114 29.6413 14.0057 29.5851L13.9616 29.5651C13.7811 29.6573 13.6808 29.7897 13.6568 29.9621C13.6447 30.0624 13.6528 30.1467 13.6848 30.2108C13.757 30.3592 13.8774 30.4475 14.0418 30.4716C14.1581 30.4876 14.2584 30.4635 14.3386 30.4034C14.4229 30.3392 14.471 30.2509 14.487 30.1386H14.483ZM14.6274 28.9794C14.6395 28.8752 14.6194 28.7909 14.5592 28.7187C14.4991 28.6465 14.4108 28.6024 14.2945 28.5904C14.1902 28.5743 14.102 28.5904 14.0298 28.6465C13.9656 28.6947 13.9295 28.7588 13.9135 28.8391C13.9054 28.9193 13.9295 28.9955 13.9977 29.0717C14.0338 29.1118 14.09 29.1559 14.1622 29.2001C14.1862 29.2161 14.2263 29.2402 14.2785 29.2682L14.3707 29.3164C14.5231 29.2522 14.6114 29.1399 14.6314 28.9835L14.6274 28.9794Z" fill="#9B0000"/>
<path d="M18.6183 29.2085C18.6584 29.4893 18.6343 29.7259 18.5461 29.9265C18.4579 30.135 18.3255 30.3115 18.145 30.4519C17.9645 30.5963 17.7519 30.6845 17.5153 30.7166L17.3628 30.6324L17.3949 30.5642C17.431 30.5682 17.4752 30.5682 17.5273 30.5642C17.7078 30.5401 17.8602 30.4559 17.9805 30.3155C18.0287 30.2594 18.0688 30.1872 18.1049 30.0989C18.161 29.9586 18.1891 29.762 18.1811 29.5093C18.0287 29.6778 17.9404 29.766 17.9204 29.77C17.8482 29.8061 17.764 29.8302 17.6757 29.8422C17.5193 29.8623 17.3869 29.8302 17.2746 29.742C17.1543 29.6457 17.0781 29.5013 17.054 29.3088C17.0099 28.9999 17.0981 28.7593 17.3187 28.5788C17.423 28.4945 17.5554 28.4384 17.7238 28.4183C18.0367 28.3742 18.2774 28.4745 18.4458 28.7191C18.5301 28.8395 18.5862 29.0039 18.6143 29.2125L18.6183 29.2085ZM18.137 29.1082C18.1089 28.9157 18.0568 28.7753 17.9805 28.6871C17.9043 28.6028 17.8121 28.5667 17.7038 28.5828C17.5674 28.6028 17.4872 28.679 17.4591 28.8194C17.4431 28.8916 17.4391 28.9799 17.4551 29.0761C17.4792 29.2366 17.5313 29.3609 17.6075 29.4371C17.6797 29.5093 17.772 29.5374 17.8803 29.5254C18.0207 29.5093 18.1049 29.4411 18.133 29.3248C18.149 29.2727 18.149 29.2005 18.133 29.1122L18.137 29.1082Z" fill="#9B0000"/>
<path d="M22.3319 28.5505C22.3841 28.6628 22.4041 28.7751 22.3961 28.8794C22.3801 29.084 22.2918 29.2604 22.1234 29.4048C22.0552 29.465 21.9629 29.5212 21.8466 29.5693C21.6019 29.6736 21.3813 29.6736 21.1768 29.5693C21.0845 29.5212 21.0123 29.4369 20.9602 29.3166C20.896 29.1682 20.896 29.0238 20.9602 28.8874C20.9802 28.8433 21.0404 28.7671 21.1326 28.6588C20.8679 28.6427 20.6914 28.5344 20.6032 28.3339C20.5029 28.1053 20.547 27.8887 20.7315 27.6841C20.8118 27.5959 20.912 27.5237 21.0404 27.4675C21.2249 27.3873 21.3893 27.3632 21.5337 27.4033C21.6701 27.4394 21.7664 27.5197 21.8225 27.648C21.8987 27.8245 21.8586 28.009 21.6982 28.2095C21.8747 28.2015 22.0151 28.2256 22.1113 28.2817C22.2036 28.3339 22.2758 28.4221 22.3279 28.5465L22.3319 28.5505ZM21.5658 27.8125C21.5217 27.7162 21.4575 27.656 21.3693 27.6239C21.281 27.5919 21.1848 27.6039 21.0765 27.648C20.9802 27.6881 20.912 27.7523 20.8799 27.8285C20.8479 27.9047 20.8479 27.9769 20.8799 28.0491C20.912 28.1253 20.9762 28.1734 21.0725 28.2055C21.1246 28.2216 21.1928 28.2296 21.277 28.2296C21.3091 28.2296 21.3532 28.2296 21.4134 28.2296H21.5177C21.614 28.0932 21.634 27.9528 21.5698 27.8044L21.5658 27.8125ZM22.0471 28.8794C21.987 28.739 21.8707 28.6628 21.6982 28.6548C21.5859 28.6468 21.4696 28.6508 21.3492 28.6548H21.2971C21.1888 28.8272 21.1727 28.9957 21.2409 29.1562C21.281 29.2484 21.3332 29.3166 21.3974 29.3567C21.5377 29.449 21.6862 29.457 21.8386 29.3928C21.9469 29.3447 22.0191 29.2725 22.0552 29.1802C22.0913 29.084 22.0873 28.9837 22.0431 28.8794H22.0471Z" fill="#9B0000"/>
<path d="M9.77488 1.25946C7.86964 2.06568 6.15693 3.22086 4.68889 4.68889C3.22086 6.15693 2.06568 7.86964 1.25946 9.77488C0.425169 11.7483 0 13.8421 0 16.004C0 18.166 0.425169 20.2597 1.25946 22.2331C2.06568 24.1384 3.21685 25.8471 4.68889 27.3191C6.16094 28.7912 7.86964 29.9423 9.77488 30.7486C11.7443 31.5829 13.8421 32.008 16 32.008C18.1579 32.008 20.2557 31.5869 22.2291 30.7486C24.1344 29.9423 25.8471 28.7912 27.3151 27.3191C28.7832 25.8511 29.9383 24.1384 30.7445 22.2331C31.5788 20.2597 32.004 18.166 32.004 16.004C32.004 13.8421 31.5829 11.7483 30.7445 9.77488C29.9383 7.86964 28.7872 6.15693 27.3151 4.68889C25.8471 3.22086 24.1344 2.06568 22.2291 1.25946C20.2557 0.425169 18.1619 0 16 0C13.8381 0 11.7443 0.425169 9.77488 1.25946ZM9.97944 30.2552C8.13838 29.4771 6.48183 28.362 5.06192 26.9381C3.638 25.5182 2.52294 23.8616 1.7448 22.0206C0.938581 20.1153 0.529456 18.0857 0.529456 16C0.529456 13.9143 0.938581 11.8847 1.7448 9.97543C2.52294 8.13437 3.638 6.47781 5.06192 5.05791C6.48183 3.638 8.13838 2.51893 9.97944 1.74079C11.8847 0.93457 13.9103 0.525445 16 0.525445C18.0897 0.525445 20.1153 0.93457 22.0206 1.74079C23.8656 2.51893 25.5182 3.638 26.9381 5.05791C28.362 6.47781 29.4731 8.13437 30.2552 9.97543C31.0614 11.8847 31.4705 13.9103 31.4705 16C31.4705 18.0897 31.0614 20.1153 30.2552 22.0206C29.4771 23.8616 28.362 25.5182 26.9381 26.9381C25.5182 28.358 23.8616 29.4771 22.0206 30.2552C20.1153 31.0614 18.0857 31.4705 16 31.4705C13.9143 31.4705 11.8847 31.0654 9.97944 30.2552Z" fill="#9B0000"/>
<path d="M11.3939 5.09804C9.98602 5.69167 8.71854 6.54602 7.63556 7.63301C6.54857 8.72 5.69422 9.98347 5.09657 11.3913C4.47888 12.8514 4.16602 14.3996 4.16602 15.996C4.16602 17.5924 4.47888 19.1447 5.09657 20.6007C5.69422 22.0085 6.54456 23.272 7.63556 24.359C8.71854 25.446 9.98602 26.3003 11.3939 26.894C12.8539 27.5117 14.4022 27.8245 15.9986 27.8245C17.5949 27.8245 19.1472 27.5117 20.6072 26.894C22.0151 26.3003 23.2826 25.446 24.3696 24.359C25.4566 23.272 26.3069 22.0085 26.9045 20.6007C27.5222 19.1407 27.8351 17.5924 27.8351 15.996C27.8351 14.3996 27.5222 12.8514 26.9045 11.3913C26.3069 9.98347 25.4566 8.72 24.3696 7.63301C23.2826 6.54602 22.0191 5.69167 20.6072 5.09804C19.1472 4.48034 17.599 4.16748 15.9986 4.16748C14.3982 4.16748 12.8539 4.48034 11.3939 5.09804ZM11.5343 26.5731C10.1665 25.9955 8.93914 25.1692 7.88424 24.1143C6.82934 23.0594 6.00307 21.8321 5.42548 20.4683C4.82784 19.0524 4.523 17.5523 4.523 16C4.523 14.4478 4.82784 12.9476 5.42548 11.5317C6.00307 10.164 6.82934 8.9366 7.88424 7.88571C8.93914 6.8308 10.1665 6.00453 11.5343 5.42694C12.9502 4.82529 14.4503 4.52446 15.9986 4.52446C17.5468 4.52446 19.0509 4.82529 20.4668 5.42694C21.8346 6.00453 23.058 6.8308 24.1129 7.88571C25.1678 8.9366 25.994 10.164 26.5716 11.5317C27.1693 12.9476 27.4741 14.4518 27.4741 16C27.4741 17.5483 27.1733 19.0524 26.5716 20.4683C25.994 21.8361 25.1678 23.0594 24.1129 24.1143C23.058 25.1692 21.8306 25.9955 20.4668 26.5731C19.0509 27.1748 17.5468 27.4756 15.9986 27.4756C14.4503 27.4756 12.9462 27.1748 11.5343 26.5731Z" fill="#9B0000"/>
<path d="M2.43008 20.0991C2.54239 20.055 2.64668 20.043 2.74294 20.059C2.83921 20.0711 2.93146 20.1112 3.01168 20.1713C3.09591 20.2355 3.16811 20.3157 3.23229 20.412C3.29646 20.5083 3.35262 20.6246 3.40476 20.757L3.46493 20.9134L4.01845 20.7048C4.05054 20.6928 4.07861 20.6767 4.09867 20.6527C4.11872 20.6326 4.13076 20.6005 4.13076 20.5564C4.13076 20.5363 4.13076 20.5002 4.11872 20.4561C4.1107 20.412 4.10268 20.3719 4.09466 20.3438L4.20296 20.3037L4.61609 21.3827L4.50779 21.4228C4.49576 21.3987 4.47972 21.3626 4.45565 21.3225C4.4356 21.2784 4.41554 21.2503 4.40351 21.2343C4.37543 21.2022 4.34735 21.1861 4.31928 21.1821C4.2912 21.1821 4.26312 21.1821 4.22301 21.1982L2.83519 21.7276C2.80311 21.7397 2.77503 21.7557 2.75899 21.7798C2.73893 21.7998 2.7269 21.8319 2.7269 21.876C2.7269 21.9041 2.7269 21.9442 2.73893 21.9923C2.74695 22.0405 2.75096 22.0726 2.75899 22.0966L2.65069 22.1367L2.23755 21.0498C2.13728 20.7971 2.10519 20.5885 2.14129 20.4321C2.17739 20.2756 2.27365 20.1633 2.44211 20.1032L2.43008 20.0991ZM2.70283 20.6085C2.55442 20.6647 2.45816 20.7369 2.41003 20.8251C2.36189 20.9134 2.3659 21.0297 2.42206 21.1821L2.46618 21.2984L3.33256 20.9655L3.3085 20.9054C3.25234 20.757 3.17212 20.6567 3.07185 20.6005C2.97157 20.5484 2.84723 20.5484 2.70283 20.6045V20.6085Z" fill="#9B0000"/>
<path d="M1.86745 16.7862L1.87948 16.9026C1.80328 16.9387 1.73108 16.9988 1.65487 17.075C1.58267 17.1553 1.54256 17.2275 1.53454 17.2997C1.53454 17.3277 1.53454 17.3678 1.53454 17.42C1.53855 17.4721 1.54256 17.5163 1.54657 17.5483L1.58267 17.8492L2.38889 17.7569L2.36482 17.5443C2.3568 17.4922 2.34878 17.4441 2.32872 17.3999C2.31268 17.3598 2.28059 17.3197 2.24048 17.2876C2.21641 17.2676 2.17229 17.2515 2.11212 17.2315C2.05196 17.2154 1.99982 17.2074 1.95971 17.2074L1.94767 17.0911L2.81807 16.9908L2.83411 17.1071C2.794 17.1152 2.74186 17.1352 2.68169 17.1673C2.62153 17.1994 2.58141 17.2234 2.56136 17.2515C2.52927 17.2876 2.50922 17.3277 2.50119 17.3719C2.49317 17.42 2.49317 17.4681 2.50119 17.5283L2.52526 17.7449L3.13093 17.6727C3.1951 17.6647 3.24324 17.6566 3.27933 17.6446C3.31543 17.6286 3.3395 17.6085 3.35956 17.5804C3.3756 17.5564 3.38362 17.5203 3.38362 17.4761C3.38362 17.432 3.38362 17.3759 3.37159 17.3037C3.37159 17.2676 3.36357 17.2275 3.35554 17.1793C3.35153 17.1312 3.3395 17.0911 3.33148 17.055C3.32346 17.0149 3.31142 16.9748 3.29538 16.9427C3.27933 16.9066 3.26329 16.8825 3.24324 16.8665C3.19109 16.8264 3.11087 16.7822 3.00658 16.7341C2.9023 16.686 2.82208 16.6579 2.76993 16.6459L2.7579 16.5376L3.41571 16.5015L3.64434 18.4669L3.52802 18.4789C3.52401 18.4508 3.51197 18.4147 3.50395 18.3666C3.49192 18.3185 3.47989 18.2864 3.47186 18.2663C3.45181 18.2302 3.42774 18.2102 3.40368 18.1981C3.37961 18.1861 3.34752 18.1861 3.30741 18.1901L1.83135 18.3626C1.79525 18.3666 1.76718 18.3746 1.74712 18.3907C1.72707 18.4067 1.70701 18.4348 1.69498 18.4749C1.68696 18.503 1.67893 18.5391 1.67492 18.5872C1.67492 18.6353 1.6669 18.6714 1.6669 18.6955L1.55058 18.7115L1.33398 16.8544L1.87146 16.7903L1.86745 16.7862Z" fill="#9B0000"/>
<path d="M3.75902 12.8834L3.6427 13.7096C3.43011 13.8059 3.25764 13.8942 3.11324 13.9784C2.96885 14.0586 2.78835 14.1629 2.57175 14.2912L2.55972 14.3675L3.21753 14.4637C3.25363 14.4677 3.28572 14.4637 3.30978 14.4597C3.33786 14.4477 3.35792 14.4276 3.38198 14.3915C3.39 14.3755 3.40204 14.3514 3.41407 14.3193C3.4261 14.2872 3.43814 14.2511 3.44616 14.219L3.56248 14.2351L3.40605 15.3461L3.28973 15.3301C3.28973 15.302 3.29374 15.2659 3.29775 15.2178C3.29775 15.1697 3.29775 15.1336 3.29775 15.1135C3.28973 15.0774 3.27368 15.0493 3.24962 15.0293C3.22956 15.0132 3.19747 15.0012 3.15736 14.9932L1.67729 14.7846C1.64119 14.7806 1.61312 14.7806 1.58905 14.7886C1.56499 14.7966 1.54092 14.8207 1.51685 14.8568C1.4968 14.8849 1.48075 14.921 1.46872 14.9611C1.45268 15.0012 1.44064 15.0373 1.43663 15.0614L1.32031 15.0453L1.48476 13.8982L1.60108 13.9142C1.60108 13.9463 1.60108 13.9824 1.60108 14.0265C1.60108 14.0706 1.60108 14.1067 1.60911 14.1388C1.61713 14.1789 1.63317 14.207 1.65724 14.2231C1.68532 14.2391 1.71339 14.2511 1.74548 14.2551L2.45142 14.3554L2.45945 14.2953C2.39928 14.211 2.33109 14.1067 2.24686 13.9944C2.16263 13.8781 2.09444 13.7859 2.03829 13.7217C1.96208 13.6334 1.90191 13.5653 1.85378 13.5211C1.80565 13.477 1.76554 13.4529 1.72944 13.4449C1.71339 13.4449 1.69735 13.461 1.68131 13.4931C1.66526 13.5292 1.65323 13.5813 1.63718 13.6535L1.52086 13.6375L1.65323 12.731L1.76955 12.747C1.76955 12.8593 1.77356 12.9516 1.7896 13.0278C1.80565 13.108 1.84175 13.1842 1.8979 13.2684C1.97812 13.3848 2.04631 13.481 2.10647 13.5612C2.16664 13.6375 2.24285 13.7377 2.3351 13.8581C2.46346 13.7818 2.61989 13.6896 2.80439 13.5813C2.9889 13.473 3.1694 13.3647 3.34588 13.2564C3.39 13.2283 3.43413 13.1962 3.47825 13.1601C3.52237 13.124 3.55847 13.0799 3.58654 13.0318C3.60259 13.0077 3.61462 12.9837 3.62264 12.9516C3.63468 12.9195 3.63869 12.8954 3.6427 12.8713L3.75902 12.8874V12.8834Z" fill="#9B0000"/>
<path d="M4.55865 10.7939L4.12145 11.8809L4.01315 11.8367C4.02117 11.8087 4.0332 11.7726 4.04925 11.7244C4.06529 11.6763 4.07331 11.6402 4.07331 11.6201C4.07331 11.58 4.06529 11.552 4.04524 11.5279C4.02919 11.5078 4.00111 11.4878 3.96502 11.4717L2.5772 10.9182C2.54511 10.9062 2.51703 10.9022 2.48896 10.9022C2.46088 10.9022 2.4328 10.9182 2.40472 10.9503C2.38467 10.9663 2.36461 10.9984 2.33654 11.0385C2.30846 11.0787 2.2884 11.1148 2.27236 11.1388L2.16406 11.0987L2.59725 10.0117L2.70555 10.0558C2.69753 10.0839 2.68951 10.12 2.67747 10.1641C2.66544 10.2083 2.65742 10.2444 2.65742 10.2764C2.65742 10.3166 2.66544 10.3486 2.6855 10.3687C2.70555 10.3928 2.73363 10.4088 2.76572 10.4208L4.15353 10.9784C4.18562 10.9944 4.21771 10.9984 4.24579 10.9944C4.27386 10.9944 4.30595 10.9784 4.33002 10.9463C4.34606 10.9302 4.36612 10.9022 4.3942 10.8621C4.41826 10.8219 4.44233 10.7818 4.45436 10.7538L4.56266 10.7979L4.55865 10.7939Z" fill="#9B0000"/>
<path d="M4.89354 6.51381C4.8775 6.53788 4.86145 6.56997 4.83739 6.6181C4.81332 6.66222 4.8053 6.71035 4.8053 6.7625C4.8053 6.81063 4.82937 6.85876 4.87349 6.90689C4.91761 6.95904 4.98981 7.0192 5.09409 7.0914L6.32147 7.97383L6.16905 8.18641L4.0793 8.30273L4.88151 8.87631C4.98178 8.94851 5.062 8.99664 5.12217 9.02071C5.18234 9.04477 5.23849 9.04879 5.28261 9.03675C5.3147 9.02873 5.35882 9.00466 5.40294 8.96856C5.45107 8.92845 5.48717 8.90038 5.51124 8.8723L5.60751 8.94049L5.07805 9.67852L4.98178 9.61033C5.00184 9.57824 5.02189 9.53813 5.04195 9.49C5.06201 9.44187 5.07404 9.39774 5.07404 9.35763C5.07404 9.3095 5.05398 9.26137 5.01387 9.21725C4.97376 9.16912 4.90156 9.10895 4.78925 9.02873L3.97502 8.44312C3.93491 8.41504 3.89078 8.39499 3.84666 8.37894C3.80254 8.3629 3.75441 8.3629 3.7143 8.37092C3.66617 8.37894 3.62204 8.399 3.58193 8.42306C3.53781 8.44713 3.4977 8.47922 3.45759 8.51933L3.36133 8.45114L3.8226 7.80537L5.65564 7.70509L5.00184 7.2358C4.89755 7.1636 4.81733 7.11547 4.75717 7.0914C4.697 7.06734 4.64486 7.06332 4.59673 7.07536C4.56063 7.08739 4.52052 7.10745 4.47639 7.14355C4.42826 7.17964 4.39216 7.20772 4.3681 7.23179L4.27584 7.16761L4.80129 6.43359L4.89354 6.50178V6.51381Z" fill="#9B0000"/>
<path d="M8.54839 4.77319C8.52432 4.79324 8.50828 4.81731 8.49224 4.83335C8.47619 4.8494 8.46015 4.87747 8.44009 4.90555C8.41603 4.94165 8.408 4.97374 8.42004 5.00583C8.42806 5.03791 8.44009 5.06198 8.46416 5.09006L8.61658 5.28259C8.64867 5.31869 8.67273 5.35077 8.69279 5.37484C8.71284 5.39891 8.73691 5.42698 8.76499 5.46308C8.72488 5.57138 8.64867 5.70776 8.52833 5.8682C8.41201 6.02864 8.28767 6.16501 8.16333 6.26529C8.043 6.36155 7.91866 6.43375 7.78629 6.48188C7.65393 6.53002 7.51755 6.55007 7.38118 6.53804C7.2448 6.53002 7.11244 6.48991 6.98008 6.41771C6.84771 6.34952 6.72738 6.24523 6.61908 6.10886C6.51881 5.98051 6.4426 5.84413 6.39848 5.70374C6.35034 5.55935 6.33831 5.41896 6.35436 5.27456C6.3704 5.13418 6.41853 4.9978 6.49474 4.86143C6.57496 4.72906 6.68326 4.60472 6.81964 4.49642C6.91189 4.42021 7.00815 4.36406 7.10442 4.32395C7.20469 4.28384 7.28893 4.25576 7.36112 4.23972L7.38118 4.11939L7.48146 4.03516L7.97481 4.62879L7.87454 4.70901C7.66997 4.57263 7.49349 4.50044 7.34107 4.47637C7.18865 4.45631 7.05228 4.49642 6.92392 4.5967C6.77551 4.71703 6.71535 4.87346 6.7354 5.06599C6.75947 5.25852 6.85975 5.4711 7.04425 5.69973C7.23678 5.9404 7.42931 6.10084 7.61783 6.16902C7.80635 6.24122 7.9708 6.22117 8.11921 6.10485C8.1874 6.04869 8.23954 5.99254 8.27564 5.92836C8.31174 5.86419 8.33179 5.80803 8.33982 5.7599L8.07108 5.42698C8.04701 5.39891 8.02696 5.37885 7.99888 5.37083C7.97481 5.3588 7.93871 5.3588 7.8986 5.37083C7.86651 5.37885 7.83042 5.39088 7.7903 5.41495C7.75019 5.43501 7.7141 5.45506 7.69003 5.46709L7.61783 5.37885L8.47218 4.68895L8.54438 4.78121L8.54839 4.77319Z" fill="#9B0000"/>
<path d="M13.463 1.61642C13.435 1.62846 13.3989 1.6445 13.3467 1.66857C13.2986 1.69263 13.2585 1.72071 13.2304 1.75681C13.1983 1.7889 13.1863 1.84104 13.1863 1.90522C13.1863 1.9694 13.2063 2.06566 13.2384 2.19L13.443 2.94809C13.5032 3.16869 13.4751 3.36925 13.3588 3.54573C13.2424 3.72222 13.0619 3.84255 12.8133 3.91073C12.5205 3.98694 12.2798 3.98293 12.0833 3.89469C11.8907 3.80645 11.7624 3.64601 11.6982 3.40936L11.4174 2.3705C11.4094 2.3344 11.3974 2.31033 11.3773 2.29028C11.3573 2.27022 11.3292 2.25418 11.2891 2.24215C11.261 2.23813 11.2249 2.23412 11.1888 2.23813C11.1487 2.23813 11.1206 2.24215 11.0965 2.24616L11.0645 2.13385L12.1314 1.84906L12.1635 1.96137C12.1314 1.97341 12.1033 1.98143 12.0752 1.99747C12.0431 2.00951 12.0151 2.02555 11.983 2.0456C11.9469 2.06566 11.9308 2.09374 11.9228 2.12181C11.9188 2.1539 11.9228 2.18198 11.9308 2.21808L12.2036 3.24089C12.2597 3.44144 12.34 3.57782 12.4563 3.64601C12.5726 3.71419 12.713 3.72623 12.8855 3.68211C13.0499 3.63798 13.1702 3.55375 13.2384 3.4254C13.3066 3.29705 13.3146 3.13661 13.2625 2.94006L13.078 2.25017C13.0459 2.12583 13.0138 2.03758 12.9777 1.98143C12.9456 1.92527 12.9055 1.88917 12.8654 1.86912C12.8333 1.85709 12.7852 1.84906 12.721 1.84906C12.6528 1.84906 12.6087 1.84906 12.5806 1.84906L12.5485 1.73274L13.439 1.49609L13.4671 1.61241L13.463 1.61642Z" fill="#9B0000"/>
<path d="M17.4481 1.46813C17.42 1.46813 17.3799 1.47615 17.3278 1.48016C17.2756 1.48818 17.2275 1.50824 17.1874 1.53632C17.1513 1.56439 17.1232 1.60851 17.1072 1.67269C17.0911 1.73687 17.0831 1.83313 17.0791 1.95747L17.059 3.46963H16.7943L15.5068 1.81709L15.4907 2.80781C15.4907 2.93215 15.4947 3.02441 15.5108 3.08858C15.5268 3.15276 15.5509 3.20089 15.587 3.22897C15.615 3.25304 15.6552 3.26908 15.7153 3.28914C15.7715 3.30919 15.8196 3.32122 15.8557 3.32523V3.44155L14.9492 3.42952V3.31721C14.9893 3.31721 15.0335 3.30518 15.0816 3.29716C15.1337 3.28512 15.1738 3.26908 15.2059 3.24903C15.246 3.22095 15.2701 3.17683 15.2861 3.12067C15.3022 3.06452 15.3102 2.96424 15.3102 2.82787L15.3263 1.82511C15.3263 1.77297 15.3222 1.72884 15.3062 1.68472C15.2902 1.6406 15.2701 1.60049 15.238 1.5684C15.2019 1.5323 15.1658 1.50824 15.1217 1.48818C15.0776 1.46813 15.0254 1.45208 14.9693 1.44005V1.32373L15.7635 1.33576L16.8946 2.78375L16.9066 1.98154C16.9066 1.85319 16.9026 1.76093 16.8865 1.69676C16.8705 1.63258 16.8424 1.58846 16.8063 1.55637C16.7782 1.53632 16.7341 1.51225 16.682 1.4962C16.6258 1.48016 16.5817 1.46813 16.5456 1.46011V1.3478L17.4481 1.35983V1.47615V1.46813Z" fill="#9B0000"/>
<path d="M19.723 3.99088L18.5879 3.69807L18.616 3.58576C18.64 3.58978 18.6801 3.5978 18.7323 3.60582C18.7844 3.61384 18.8205 3.61785 18.8406 3.61384C18.8807 3.60983 18.9088 3.5978 18.9288 3.57373C18.9489 3.55368 18.9609 3.5256 18.973 3.4895L19.35 2.04152C19.358 2.00943 19.358 1.97734 19.35 1.94926C19.342 1.92119 19.3259 1.89712 19.2898 1.86904C19.2698 1.853 19.2377 1.83696 19.1976 1.81289C19.1575 1.79283 19.1173 1.77278 19.0853 1.76075L19.1133 1.64844L20.2485 1.94124L20.2204 2.05355C20.1923 2.04954 20.1562 2.04152 20.1121 2.03751C20.068 2.0335 20.0279 2.02949 19.9958 2.0335C19.9557 2.0335 19.9236 2.04954 19.9035 2.07361C19.8835 2.09767 19.8714 2.12575 19.8634 2.15784L19.4904 3.60582C19.4824 3.63791 19.4824 3.67 19.4904 3.69807C19.4984 3.72615 19.5185 3.75423 19.5505 3.77829C19.5666 3.79434 19.5987 3.81038 19.6428 3.83044C19.6869 3.85049 19.727 3.86253 19.7551 3.87456L19.727 3.98687L19.723 3.99088Z" fill="#9B0000"/>
<path d="M23.8732 3.71008C23.8411 3.69804 23.813 3.69002 23.7809 3.682C23.7489 3.67398 23.7168 3.67398 23.6807 3.67398C23.6325 3.67398 23.5884 3.682 23.5563 3.69804C23.5242 3.71409 23.4841 3.73414 23.44 3.76623C23.3798 3.81436 23.2956 3.87854 23.1873 3.97079C23.075 4.05904 22.9507 4.15931 22.8103 4.27563C22.6859 4.37992 22.5455 4.49223 22.3971 4.61657C22.2487 4.7369 22.1043 4.86124 21.968 4.96954L21.7072 4.82916C21.7433 4.46415 21.7794 4.09514 21.8195 3.71409C21.8597 3.33705 21.8837 3.07634 21.8958 2.92392C21.8958 2.87177 21.8958 2.82765 21.8917 2.79556C21.8837 2.76347 21.8677 2.72336 21.8396 2.67924C21.8195 2.64715 21.7995 2.62309 21.7794 2.60303C21.7594 2.58699 21.7313 2.56292 21.6992 2.53886L21.7554 2.43457L22.7662 2.96804L22.714 3.06831C22.6137 3.0282 22.5375 3.00414 22.4974 3.00013C22.4573 2.99611 22.4292 3.00013 22.4212 3.02018C22.4172 3.03221 22.4132 3.04024 22.4092 3.05227C22.4092 3.0643 22.4052 3.08035 22.3971 3.10441C22.3851 3.19667 22.3691 3.34909 22.349 3.56568C22.329 3.78228 22.2969 4.11118 22.2527 4.54838C22.4573 4.37591 22.6338 4.2275 22.7742 4.10717C22.9146 3.98684 23.0389 3.87854 23.1432 3.78629C23.1953 3.74217 23.2435 3.69804 23.2836 3.65793C23.3237 3.61782 23.3518 3.58574 23.3638 3.56167C23.3798 3.53359 23.3718 3.5015 23.3397 3.45738C23.3076 3.41727 23.2395 3.36112 23.1352 3.29694L23.1913 3.19265L23.9494 3.59376L23.8933 3.69804L23.8732 3.71008Z" fill="#9B0000"/>
<path d="M26.1693 6.16085L26.085 6.08062C26.1211 6.0004 26.1372 5.90815 26.1412 5.79985C26.1412 5.69155 26.1292 5.61133 26.0891 5.55117C26.073 5.52309 26.0449 5.49501 26.0048 5.45891C25.9687 5.4188 25.9366 5.39073 25.9086 5.36666L25.6839 5.1621L25.1344 5.76375L25.2909 5.91216C25.331 5.94826 25.3711 5.97634 25.4112 5.99639C25.4513 6.01645 25.4994 6.02848 25.5516 6.02447C25.5837 6.02447 25.6278 6.00843 25.6799 5.98035C25.7361 5.95227 25.7802 5.92821 25.8163 5.90013L25.9005 5.97634L25.3109 6.62613L25.2267 6.5459C25.2508 6.51382 25.2748 6.46167 25.2989 6.40151C25.323 6.33733 25.335 6.2892 25.335 6.25711C25.335 6.20898 25.323 6.16486 25.3029 6.12475C25.2788 6.08464 25.2467 6.04453 25.2026 6.00843L25.0422 5.86403L24.6331 6.31326C24.5889 6.3614 24.5609 6.40151 24.5408 6.4336C24.5248 6.46568 24.5167 6.50178 24.5248 6.53387C24.5248 6.56195 24.5448 6.59805 24.5729 6.63014C24.601 6.66222 24.6411 6.70635 24.6972 6.75849C24.7213 6.77854 24.7534 6.81063 24.7895 6.84272C24.8256 6.87481 24.8577 6.89887 24.8898 6.92294C24.9219 6.94701 24.9579 6.96706 24.99 6.98712C25.0261 7.00316 25.0542 7.01118 25.0783 7.01118C25.1425 7.01118 25.2347 6.98712 25.343 6.95503C25.4553 6.91893 25.5315 6.89486 25.5797 6.86679L25.6599 6.93898L25.1866 7.39624L23.7266 6.06458L23.8068 5.98035C23.8268 5.99639 23.8589 6.02046 23.899 6.04854C23.9391 6.07661 23.9672 6.09266 23.9873 6.10068C24.0274 6.11672 24.0595 6.11672 24.0835 6.1087C24.1116 6.10068 24.1357 6.08062 24.1598 6.05255L25.1625 4.95353C25.1866 4.92946 25.2026 4.90138 25.2106 4.87732C25.2187 4.85325 25.2106 4.81715 25.1946 4.77704C25.1826 4.75297 25.1625 4.72089 25.1344 4.68078C25.1064 4.64066 25.0863 4.61259 25.0703 4.59253L25.1465 4.5083L26.5263 5.76776L26.1613 6.16887L26.1693 6.16085Z" fill="#9B0000"/>
<path d="M27.2647 10.3042L26.8275 9.6223C26.9318 9.38966 27.012 9.20114 27.0682 9.05675C27.1243 8.90834 27.1845 8.73185 27.2487 8.52729L27.2086 8.46311L26.6751 8.80806C26.643 8.82411 26.623 8.84817 26.6069 8.87224C26.5949 8.89631 26.5909 8.92839 26.5949 8.97252C26.5949 8.98856 26.6069 9.02065 26.623 9.06076C26.639 9.09686 26.651 9.12895 26.6631 9.15702L26.5668 9.2212L25.9531 8.2746L26.0494 8.21042C26.0654 8.23449 26.0935 8.26256 26.1216 8.30267C26.1537 8.33877 26.1737 8.36284 26.1938 8.37487C26.2259 8.39894 26.258 8.40696 26.286 8.40696C26.3141 8.40696 26.3422 8.39493 26.3743 8.37086L27.6257 7.56464C27.6538 7.54459 27.6739 7.52453 27.6899 7.50047C27.7059 7.48041 27.7059 7.44431 27.7019 7.40019C27.6939 7.36409 27.6819 7.32799 27.6658 7.28788C27.6498 7.24777 27.6378 7.21568 27.6257 7.19162L27.722 7.12744L28.3638 8.12218C28.5082 8.34679 28.5803 8.53531 28.5884 8.69575C28.5884 8.8562 28.5242 8.98054 28.3838 9.07279C28.2595 9.15301 28.1351 9.18109 28.0148 9.16103C27.8945 9.13697 27.7621 9.06878 27.6297 8.94845C27.5936 9.05274 27.5495 9.17307 27.5014 9.30944C27.4533 9.44582 27.4051 9.59021 27.357 9.73461C27.3409 9.78274 27.3249 9.84291 27.3048 9.91912C27.2848 9.99533 27.2848 10.0515 27.2928 10.0916C27.3008 10.1157 27.3089 10.1397 27.3249 10.1718C27.3409 10.2039 27.349 10.228 27.357 10.24L27.2607 10.3042H27.2647ZM28.0349 8.6035C28.1552 8.52729 28.2194 8.43905 28.2314 8.33476C28.2434 8.23449 28.2113 8.12218 28.1311 8.00185L28.0669 7.90157L27.3249 8.37888L27.3851 8.47515C27.4653 8.59548 27.5575 8.67169 27.6658 8.69575C27.7741 8.71982 27.8985 8.69174 28.0349 8.59949V8.6035Z" fill="#9B0000"/>
<path d="M27.8516 12.0333C27.8115 11.913 27.7874 11.7927 27.7834 11.6763C27.7794 11.56 27.7834 11.4598 27.7994 11.3715L27.6671 11.3073L27.627 11.187L28.3449 10.9303L28.385 11.0506C28.3249 11.1028 28.2647 11.1589 28.2045 11.2271C28.1444 11.2953 28.0922 11.3675 28.0521 11.4437C28.008 11.5199 27.9799 11.6042 27.9639 11.6884C27.9478 11.7726 27.9559 11.8609 27.9879 11.9571C28.0321 12.0855 28.0922 12.1737 28.1805 12.2218C28.2647 12.27 28.357 12.278 28.4492 12.2459C28.5254 12.2218 28.5816 12.1697 28.6137 12.0935C28.6458 12.0173 28.6618 11.913 28.6618 11.7806C28.6618 11.6924 28.6618 11.6122 28.6618 11.54C28.6618 11.4678 28.6618 11.3956 28.6618 11.3314C28.6698 11.179 28.7139 11.0546 28.7942 10.9544C28.8704 10.8541 28.9747 10.7819 29.095 10.7458C29.1712 10.7177 29.2514 10.7097 29.3357 10.7217C29.4199 10.7297 29.5001 10.7578 29.5803 10.806C29.6565 10.8501 29.7247 10.9143 29.7889 10.9985C29.8571 11.0827 29.9092 11.183 29.9453 11.2953C29.9814 11.4076 30.0015 11.5159 30.0055 11.6242C30.0055 11.7325 30.0055 11.8167 29.9894 11.8849L30.1018 11.9411L30.1419 12.0654L29.464 12.3061L29.4239 12.1857C29.4881 12.1336 29.5522 12.0734 29.6124 12.0093C29.6766 11.9451 29.7247 11.8849 29.7608 11.8248C29.8009 11.7606 29.825 11.6924 29.837 11.6242C29.8491 11.552 29.841 11.4758 29.813 11.3956C29.7809 11.2953 29.7207 11.2231 29.6445 11.175C29.5643 11.1308 29.4841 11.1188 29.3998 11.1509C29.3196 11.179 29.2635 11.2271 29.2354 11.2993C29.2033 11.3715 29.1872 11.4758 29.1913 11.6042C29.1913 11.6844 29.1913 11.7606 29.1913 11.8408C29.1913 11.921 29.1913 11.9932 29.1872 12.0574C29.1832 12.2098 29.1431 12.3382 29.0749 12.4425C29.0067 12.5467 28.9025 12.6189 28.7661 12.6631C28.6819 12.6911 28.5896 12.6992 28.4933 12.6871C28.3971 12.6711 28.3128 12.643 28.2366 12.5909C28.1524 12.5347 28.0762 12.4625 28.012 12.3743C27.9478 12.286 27.8917 12.1777 27.8476 12.0454L27.8516 12.0333Z" fill="#9B0000"/>
<path d="M28.5422 15.2781L28.4219 14.1149L28.5382 14.1029C28.5422 14.127 28.5502 14.1671 28.5582 14.2192C28.5703 14.2714 28.5783 14.3075 28.5863 14.3235C28.6024 14.3596 28.6264 14.3837 28.6545 14.3917C28.6786 14.4037 28.7107 14.4077 28.7468 14.4037L30.2349 14.2513C30.2669 14.2513 30.299 14.2393 30.3231 14.2232C30.3472 14.2072 30.3632 14.1791 30.3752 14.143C30.3833 14.1189 30.3913 14.0828 30.3953 14.0347C30.3993 13.9866 30.4033 13.9465 30.4033 13.9144L30.5196 13.9023L30.64 15.0655L30.5237 15.0776C30.5156 15.0495 30.5076 15.0094 30.4996 14.9693C30.4916 14.9252 30.4795 14.8891 30.4635 14.857C30.4474 14.8209 30.4234 14.7968 30.3953 14.7888C30.3672 14.7767 30.3351 14.7727 30.299 14.7767L28.815 14.9292C28.7789 14.9332 28.7508 14.9412 28.7227 14.9572C28.6986 14.9733 28.6826 15.0014 28.6706 15.0375C28.6625 15.0575 28.6585 15.0936 28.6545 15.1418C28.6545 15.1899 28.6545 15.23 28.6545 15.2621L28.5382 15.2741L28.5422 15.2781Z" fill="#9B0000"/>
<path d="M29.8405 18.6875L29.8525 18.5712C29.9447 18.5511 30.045 18.515 30.1573 18.4589C30.2696 18.4027 30.3298 18.3506 30.3458 18.2904C30.3539 18.2623 30.3619 18.2182 30.3699 18.1741C30.3779 18.126 30.386 18.0899 30.386 18.0578L30.394 17.9856L28.7535 17.789C28.7174 17.789 28.6853 17.789 28.6572 17.7971C28.6291 17.8091 28.6051 17.8291 28.585 17.8652C28.577 17.8853 28.5609 17.9214 28.5449 17.9655C28.5288 18.0137 28.5168 18.0538 28.5128 18.0859L28.3965 18.0738L28.5369 16.9026L28.6532 16.9146C28.6532 16.9427 28.6532 16.9868 28.6532 17.035C28.6532 17.0871 28.6532 17.1232 28.6612 17.1433C28.6732 17.1834 28.6893 17.2114 28.7134 17.2275C28.7374 17.2435 28.7695 17.2516 28.8056 17.2596L30.4622 17.4561L30.4702 17.3879C30.4742 17.3558 30.4782 17.3157 30.4782 17.2676C30.4782 17.2235 30.4822 17.1834 30.4822 17.1513C30.4822 17.0951 30.4341 17.0229 30.3378 16.9467C30.2456 16.8665 30.1533 16.8063 30.0691 16.7662L30.0811 16.6499L30.6828 16.7221L30.4421 18.7517L29.8405 18.6795V18.6875Z" fill="#9B0000"/>
<path d="M29.1522 22.3375C29.1603 22.3014 29.1683 22.2693 29.1683 22.2412C29.1683 22.2091 29.1683 22.177 29.1643 22.1489C29.1562 22.1008 29.1442 22.0527 29.1201 22.0126C29.0961 21.9684 29.068 21.9203 29.0399 21.8762C28.9757 21.7839 28.9035 21.6837 28.8273 21.5794C28.7471 21.4751 28.6629 21.3588 28.5706 21.2344C28.5105 21.1542 28.4623 21.098 28.4262 21.07C28.3861 21.0419 28.3179 21.0098 28.2136 20.9697L27.9329 20.8614C27.9008 20.8494 27.8687 20.8413 27.8366 20.8454C27.8085 20.8454 27.7764 20.8654 27.7484 20.8935C27.7363 20.9095 27.7163 20.9376 27.6842 20.9817C27.6561 21.0299 27.632 21.066 27.624 21.086L27.5117 21.0459L27.9369 19.9429L28.0452 19.983C28.0372 20.0111 28.0251 20.0512 28.0131 20.0993C28.0011 20.1514 27.993 20.1875 27.993 20.2116C27.993 20.2517 28.0051 20.2838 28.0251 20.3039C28.0452 20.3239 28.0733 20.344 28.1094 20.356L28.4583 20.4884C28.4904 20.5004 28.5145 20.5084 28.5385 20.5164C28.5626 20.5245 28.5827 20.5285 28.5987 20.5285C28.6188 20.5285 28.6468 20.5285 28.6789 20.5205C28.711 20.5164 28.7551 20.5084 28.8073 20.5004C28.9597 20.4763 29.1041 20.4563 29.2405 20.4322C29.3769 20.4081 29.5092 20.3841 29.6295 20.364C29.6897 20.352 29.7459 20.336 29.79 20.3159C29.8341 20.2958 29.8702 20.2718 29.9023 20.2477C29.9264 20.2277 29.9464 20.2036 29.9705 20.1675C29.9905 20.1354 30.0066 20.1073 30.0226 20.0792L30.1309 20.1234L29.6977 21.2505L29.5894 21.2104C29.6255 21.1061 29.6456 21.0299 29.6496 20.9938C29.6496 20.9537 29.6416 20.9256 29.6215 20.9216C29.6135 20.9176 29.5894 20.9176 29.5533 20.9176C29.5172 20.9176 29.4611 20.9256 29.3849 20.9336C29.3127 20.9416 29.2124 20.9577 29.084 20.9737C28.9557 20.9938 28.8033 21.0218 28.6308 21.0539C28.8434 21.3387 28.9918 21.5312 29.076 21.6395C29.1643 21.7478 29.2164 21.808 29.2445 21.816C29.2766 21.8281 29.3087 21.816 29.3408 21.7839C29.3728 21.7518 29.4049 21.6957 29.441 21.6115L29.5493 21.6516L29.2726 22.3816L29.1643 22.3415L29.1522 22.3375Z" fill="#9B0000"/>
<path d="M26.8792 16.0001C26.8792 22.0086 22.0058 26.882 15.9973 26.882C9.98874 26.882 5.11133 22.0086 5.11133 16.0001C5.11133 9.99157 9.98874 5.11816 15.9973 5.11816C22.0058 5.11816 26.8792 9.99157 26.8792 16.0041V16.0001ZM14.4009 6.875C13.9276 6.875 13.5425 7.26005 13.5425 7.73336V8.84842C12.644 9.05298 11.7335 9.38991 10.823 9.85118C9.78819 10.3726 8.7734 11.0505 7.87894 11.8166C7.52998 12.1134 7.48987 12.6388 7.78669 12.9878C8.08751 13.3368 8.60895 13.3769 8.95791 13.0801C10.3578 11.8808 11.9822 10.9943 13.5385 10.5651V12.4744C12.4555 12.8274 11.3966 13.425 10.3818 14.2633C9.24269 15.2059 8.17977 16.4253 7.22514 17.8933C7.13289 18.0337 7.08877 18.1901 7.08877 18.3465C7.08877 18.6193 7.22514 18.884 7.46981 19.0445C7.85487 19.2931 8.36828 19.1848 8.61697 18.7998C9.47934 17.4721 10.4259 16.3771 11.4367 15.5468C12.4676 14.6965 13.6067 14.1149 14.6054 13.9023C15.0507 13.8061 15.2552 13.3969 15.2552 13.1121V7.73737C15.2552 7.26407 14.8702 6.87901 14.3969 6.87901L14.4009 6.875ZM16.7353 7.73336V13.1081C16.7353 13.3929 16.9399 13.802 17.3851 13.8983C18.3838 14.1109 19.523 14.6925 20.5498 15.5428C21.5606 16.3771 22.5072 17.4681 23.3695 18.7958C23.6182 19.1808 24.1356 19.2891 24.5207 19.0405C24.7654 18.88 24.8977 18.6153 24.8977 18.3425C24.8977 18.1861 24.8536 18.0297 24.7654 17.8893C23.8108 16.4212 22.7518 15.2019 21.6087 14.2593C20.5979 13.421 19.539 12.8234 18.456 12.4704V10.5611C20.0163 10.9903 21.6408 11.8767 23.0406 13.076C23.3896 13.3729 23.915 13.3328 24.2119 12.9838C24.5127 12.6348 24.4686 12.1094 24.1196 11.8126C23.2251 11.0465 22.2063 10.3686 21.1755 9.84717C20.265 9.3859 19.3545 9.05298 18.456 8.84441V7.72935C18.456 7.25604 18.071 6.87098 17.5977 6.87098C17.1244 6.87098 16.7353 7.25604 16.7353 7.72935V7.73336ZM22.7639 21.5273C22.4029 20.685 21.9938 19.9108 21.5445 19.2209C21.0752 18.4949 20.5578 17.8652 20.0163 17.3438C19.4307 16.7863 18.809 16.3531 18.1632 16.0562C17.7381 15.8597 17.3009 15.7233 16.8596 15.6471V15.1417C16.8596 14.6684 16.4746 14.2794 15.9973 14.2794C15.52 14.2794 15.1389 14.6644 15.1389 15.1417V15.6471C14.6977 15.7233 14.2605 15.8597 13.8393 16.0562C13.1936 16.3531 12.5718 16.7863 11.9862 17.3438C11.4447 17.8612 10.9273 18.4949 10.458 19.2209C10.0088 19.9068 9.59967 20.685 9.23868 21.5273C9.05818 21.9484 9.25472 22.4378 9.67187 22.6223C10.093 22.8028 10.5824 22.6063 10.7629 22.1851C11.4127 20.6609 12.2349 19.4055 13.1334 18.5511C13.7792 17.9334 14.453 17.5323 15.1389 17.3518V18.7035C15.1389 19.1688 14.798 19.3493 14.6375 19.4456C14.5854 19.4777 14.4771 19.5418 14.429 19.5739C14.1081 19.7825 13.7431 20.0994 13.4021 20.5406C12.7844 21.3348 12.3031 22.4137 12.0464 23.5849C11.9461 24.0342 12.2309 24.4754 12.6801 24.5757C13.1294 24.6719 13.5706 24.3912 13.6709 23.9419C13.8754 23.0114 14.2444 22.165 14.7137 21.5674C14.9504 21.2626 15.4397 20.7451 16.0013 20.7451C16.5628 20.7451 17.0522 21.2586 17.2888 21.5674C17.7581 22.1691 18.1271 23.0114 18.3317 23.9419C18.4279 24.3912 18.8732 24.6759 19.3184 24.5757C19.7676 24.4794 20.0524 24.0382 19.9562 23.5849C19.7035 22.4137 19.2181 21.3348 18.6004 20.5406C18.2595 20.0994 17.8905 19.7825 17.5736 19.5739C17.5215 19.5418 17.4132 19.4777 17.361 19.4456C17.2046 19.3493 16.8636 19.1688 16.8636 18.7035V17.3518C17.5535 17.5323 18.2234 17.9334 18.8692 18.5511C19.7676 19.4055 20.5859 20.6649 21.2397 22.1851C21.4202 22.6063 21.9095 22.8028 22.3307 22.6223C22.7518 22.4378 22.9484 21.9525 22.7679 21.5273H22.7639Z" fill="#9B0000"/>
<path d="M42.4404 27.0462C42.4404 27.3109 42.3882 27.5476 42.2839 27.7521C42.1796 27.9567 42.0353 28.1292 41.8507 28.2615C41.6702 28.3979 41.4697 28.4942 41.2531 28.5583C41.0365 28.6225 40.8039 28.6506 40.5592 28.6506H39.9896V30.1948C39.9896 30.2791 40.0017 30.3513 40.0297 30.4155C40.0578 30.4796 40.114 30.5278 40.2022 30.5599C40.2463 30.5759 40.3225 30.5919 40.4308 30.604C40.5391 30.62 40.6434 30.628 40.7357 30.628V30.8847H38.5497V30.628C38.6058 30.624 38.686 30.616 38.7943 30.604C38.9026 30.5919 38.9788 30.5759 39.019 30.5599C39.0912 30.5278 39.1393 30.4836 39.1714 30.4235C39.2035 30.3633 39.2195 30.2871 39.2195 30.1948V26.5087C39.2195 26.4245 39.2075 26.3483 39.1834 26.2841C39.1593 26.2159 39.1032 26.1678 39.0149 26.1317C38.9227 26.0996 38.8344 26.0795 38.7462 26.0675C38.658 26.0555 38.5818 26.0434 38.5176 26.0394V25.7827H40.844C41.3173 25.7827 41.7023 25.895 41.9992 26.1277C42.296 26.3563 42.4444 26.6611 42.4444 27.0422L42.4404 27.0462ZM41.3454 27.9126C41.4256 27.7963 41.4777 27.6799 41.5058 27.5556C41.5339 27.4312 41.5459 27.323 41.5459 27.2227C41.5459 27.0863 41.5299 26.9459 41.4978 26.8055C41.4657 26.6651 41.4095 26.5408 41.3333 26.4365C41.2491 26.3242 41.1408 26.236 41.0044 26.1758C40.868 26.1156 40.6996 26.0835 40.495 26.0835H39.9896V28.3337H40.3546C40.6113 28.3337 40.8199 28.2936 40.9804 28.2134C41.1408 28.1332 41.2611 28.0329 41.3454 27.9126Z" fill="#231815"/>
<path d="M47.3181 29.3886L47.2219 30.8928H42.9902V30.6361C43.0624 30.632 43.1587 30.62 43.279 30.604C43.3994 30.5879 43.4756 30.5719 43.5117 30.5558C43.5879 30.5197 43.64 30.4716 43.6721 30.4155C43.7042 30.3593 43.7162 30.2831 43.7162 30.1948V26.5248C43.7162 26.4445 43.7042 26.3763 43.6761 26.3162C43.6521 26.256 43.5959 26.2039 43.5117 26.1678C43.4475 26.1357 43.3592 26.1076 43.251 26.0835C43.1427 26.0595 43.0544 26.0474 42.9902 26.0394V25.7827H46.9331V27.0101H46.6683C46.6202 26.8336 46.5159 26.6411 46.3555 26.4405C46.195 26.24 46.0426 26.1277 45.9022 26.1116C45.826 26.1036 45.7378 26.0956 45.6375 26.0916C45.5332 26.0876 45.4169 26.0835 45.2845 26.0835H44.4823V28.0971H45.0559C45.2404 28.0971 45.3728 28.081 45.457 28.0449C45.5413 28.0128 45.6175 27.9527 45.6816 27.8725C45.7338 27.8043 45.7779 27.712 45.814 27.5957C45.8501 27.4794 45.8782 27.3711 45.8862 27.2668H46.1509V29.2723H45.8862C45.8782 29.156 45.8501 29.0357 45.81 28.9073C45.7699 28.779 45.7258 28.6867 45.6816 28.6265C45.6094 28.5343 45.5252 28.4741 45.4289 28.442C45.3367 28.414 45.2123 28.3979 45.0559 28.3979H44.4823V29.9221C44.4823 30.0745 44.4944 30.1948 44.5144 30.2831C44.5345 30.3713 44.5786 30.4395 44.6428 30.4836C44.7029 30.5278 44.7872 30.5599 44.8955 30.5719C45.0038 30.5839 45.1562 30.5919 45.3527 30.5919H45.6656C45.7939 30.5919 45.9022 30.5919 45.9905 30.5759C46.0787 30.5679 46.175 30.5478 46.2713 30.5238C46.3675 30.4997 46.4357 30.4676 46.4758 30.4235C46.5841 30.3072 46.7004 30.1347 46.8208 29.902C46.9411 29.6694 47.0173 29.4969 47.0534 29.3886H47.3181Z" fill="#231815"/>
<path d="M52.5784 30.8888H51.1465C50.8697 30.4636 50.5649 30.0384 50.2279 29.6173C49.891 29.1961 49.5381 28.791 49.169 28.3939H49.0768V30.1668C49.0768 30.247 49.0928 30.3152 49.1209 30.3794C49.153 30.4435 49.2051 30.4917 49.2813 30.5318C49.3174 30.5478 49.3896 30.5679 49.4899 30.5919C49.5942 30.616 49.6784 30.628 49.7466 30.6321V30.8888H47.6368V30.6321C47.693 30.628 47.7732 30.62 47.8775 30.612C47.9818 30.6 48.058 30.5879 48.1021 30.5679C48.1743 30.5358 48.2264 30.4917 48.2585 30.4315C48.2906 30.3713 48.3067 30.2951 48.3067 30.2109V26.5288C48.3067 26.4485 48.2946 26.3763 48.2625 26.3162C48.2345 26.256 48.1823 26.2079 48.0981 26.1678C48.0339 26.1357 47.9577 26.1076 47.8655 26.0835C47.7772 26.0595 47.701 26.0474 47.6328 26.0394V25.7827H49.7426V26.0394C49.6784 26.0394 49.5942 26.0515 49.4939 26.0715C49.3937 26.0916 49.3215 26.1076 49.2733 26.1277C49.1931 26.1557 49.1369 26.2039 49.1089 26.2721C49.0808 26.3402 49.0648 26.4124 49.0648 26.4927V28.2575H49.1369C49.3535 28.073 49.5661 27.8845 49.7747 27.688C49.9833 27.4874 50.1718 27.2909 50.3443 27.0943C50.5328 26.8737 50.6732 26.7012 50.7614 26.5689C50.8497 26.4365 50.8938 26.3202 50.8938 26.2199C50.8938 26.1838 50.8697 26.1557 50.8256 26.1317C50.7815 26.1076 50.7293 26.0916 50.6732 26.0755C50.605 26.0635 50.5448 26.0555 50.4927 26.0474C50.4405 26.0474 50.3964 26.0394 50.3643 26.0394V25.7827H52.2776V26.0394C52.2776 26.0394 52.2535 26.0394 52.2295 26.0394C52.2054 26.0394 52.1773 26.0434 52.1452 26.0474C52.1131 26.0474 52.077 26.0555 52.0449 26.0635C52.0129 26.0715 51.9687 26.0795 51.9166 26.0876C51.8324 26.1076 51.7481 26.1397 51.6559 26.1798C51.5676 26.2199 51.4914 26.2761 51.4353 26.3362C51.1906 26.617 50.9339 26.9098 50.6652 27.2106C50.3964 27.5115 50.1317 27.7842 49.867 28.0329C50.232 28.446 50.5328 28.799 50.7734 29.0958C51.0141 29.3926 51.2668 29.7095 51.5355 30.0464C51.6398 30.1748 51.7401 30.2791 51.8444 30.3553C51.9487 30.4315 52.0369 30.4917 52.1091 30.5278C52.1693 30.5599 52.2495 30.5839 52.3418 30.6C52.434 30.616 52.5102 30.628 52.5744 30.628V30.8847L52.5784 30.8888Z" fill="#231815"/>
<path d="M55.1363 30.8888H52.834V30.6321C52.8982 30.628 52.9944 30.62 53.1148 30.612C53.2351 30.6 53.3233 30.5879 53.3755 30.5679C53.4557 30.5358 53.5118 30.4957 53.5479 30.4395C53.584 30.3874 53.6041 30.3112 53.6041 30.2149V26.5167C53.6041 26.4325 53.5881 26.3643 53.564 26.3082C53.5359 26.252 53.4758 26.2039 53.3755 26.1638C53.3033 26.1357 53.211 26.1076 53.1027 26.0835C52.9944 26.0595 52.9022 26.0434 52.834 26.0394V25.7827H55.1363V26.0394C55.0601 26.0394 54.9719 26.0515 54.8676 26.0675C54.7673 26.0835 54.675 26.1036 54.5988 26.1277C54.5066 26.1557 54.4464 26.2039 54.4143 26.268C54.3822 26.3322 54.3662 26.4044 54.3662 26.4846V30.1788C54.3662 30.259 54.3822 30.3272 54.4183 30.3914C54.4544 30.4516 54.5106 30.4997 54.5948 30.5358C54.647 30.5558 54.7272 30.5759 54.8435 30.6C54.9558 30.624 55.0521 30.6361 55.1323 30.6361V30.8928L55.1363 30.8888Z" fill="#231815"/>
<path d="M60.851 26.0394C60.7828 26.0394 60.6785 26.0595 60.5381 26.0956C60.3977 26.1317 60.2975 26.1718 60.2373 26.2079C60.1491 26.268 60.0929 26.3804 60.0608 26.5528C60.0287 26.7253 60.0167 26.9379 60.0167 27.2026V30.9449H59.6998L56.6033 26.7654V29.4007C56.6033 29.6975 56.6234 29.9221 56.6595 30.0785C56.6956 30.239 56.7517 30.3513 56.8279 30.4155C56.8841 30.4676 56.9964 30.5197 57.1689 30.5639C57.3413 30.608 57.4537 30.632 57.5098 30.6361V30.8928H55.4201V30.6361C55.4842 30.632 55.5925 30.608 55.745 30.5679C55.8974 30.5238 55.9936 30.4877 56.0338 30.4556C56.118 30.3874 56.1741 30.2871 56.2062 30.1467C56.2383 30.0063 56.2544 29.7737 56.2544 29.4408V26.9259C56.2544 26.8135 56.2343 26.7053 56.1982 26.5929C56.1581 26.4846 56.11 26.3964 56.0458 26.3362C55.9616 26.256 55.8412 26.1878 55.6968 26.1317C55.5484 26.0755 55.4321 26.0474 55.3398 26.0394V25.7827H56.7958L59.6677 29.6774V27.2467C59.6677 26.9499 59.6477 26.7213 59.6116 26.5609C59.5755 26.4004 59.5193 26.2961 59.4471 26.244C59.379 26.1999 59.2707 26.1517 59.1182 26.1116C58.9658 26.0675 58.8495 26.0474 58.7733 26.0394V25.7827H60.851V26.0394Z" fill="#231815"/>
<path d="M66.2068 28.8432C66.1467 28.8513 66.0705 28.8633 65.9742 28.8753C65.8739 28.8914 65.7977 28.9114 65.7375 28.9435C65.6653 28.9796 65.6132 29.0318 65.5851 29.0959C65.553 29.1641 65.541 29.2403 65.541 29.3286V29.7257C65.541 30.0145 65.541 30.207 65.545 30.3113C65.545 30.4116 65.553 30.4958 65.557 30.56C65.2402 30.7044 64.9233 30.8167 64.6064 30.8929C64.2896 30.9691 63.9807 31.0092 63.6759 31.0092C63.351 31.0092 63.0381 30.949 62.7373 30.8247C62.4365 30.7003 62.1717 30.5279 61.9471 30.3033C61.7185 30.0746 61.538 29.7979 61.4056 29.473C61.2693 29.1441 61.2051 28.7831 61.2051 28.378C61.2051 27.9728 61.2693 27.6279 61.3976 27.295C61.526 26.9621 61.7065 26.6733 61.9391 26.4286C62.1677 26.1879 62.4365 26.0034 62.7533 25.8671C63.0702 25.7347 63.4071 25.6665 63.7641 25.6665C64.0529 25.6665 64.3016 25.7026 64.5142 25.7748C64.7268 25.847 64.9153 25.9312 65.0757 26.0275L65.2241 25.7828H65.5129L65.545 27.5637H65.2482C65.1961 27.3672 65.1359 27.1706 65.0597 26.9781C64.9875 26.7856 64.8912 26.6171 64.7749 26.4607C64.6586 26.3083 64.5142 26.1879 64.3457 26.0997C64.1773 26.0074 63.9767 25.9633 63.7441 25.9633C63.4874 25.9633 63.2587 26.0155 63.0582 26.1198C62.8576 26.224 62.6811 26.3805 62.5367 26.585C62.3923 26.7856 62.28 27.0343 62.1998 27.3311C62.1196 27.6279 62.0795 27.9608 62.0795 28.3298C62.0795 28.6547 62.1196 28.9596 62.1958 29.2484C62.272 29.5371 62.3883 29.7818 62.5367 29.9944C62.6852 30.207 62.8697 30.3755 63.0943 30.4998C63.3189 30.6241 63.5716 30.6843 63.8524 30.6843C64.0649 30.6843 64.2535 30.6522 64.43 30.588C64.6024 30.5239 64.7268 30.4557 64.799 30.3835C64.815 30.2591 64.827 30.1308 64.8311 30.0064C64.8311 29.8781 64.8311 29.7698 64.8311 29.6815V29.4008C64.8311 29.3005 64.815 29.2082 64.7909 29.132C64.7629 29.0518 64.7067 28.9957 64.6185 28.9596C64.5382 28.9235 64.434 28.8954 64.2976 28.8793C64.1612 28.8633 64.0569 28.8513 63.9807 28.8472V28.5905H66.2189V28.8472L66.2068 28.8432Z" fill="#231815"/>
<path d="M73.5534 26.0396C73.4852 26.0396 73.3849 26.0557 73.2566 26.0838C73.1282 26.1078 73.0199 26.1479 72.9397 26.2001C72.8595 26.2562 72.7993 26.3685 72.7712 26.541C72.7391 26.7135 72.7231 26.9261 72.7231 27.1748V29.3929C72.7231 29.6736 72.6669 29.9223 72.5466 30.1269C72.4303 30.3354 72.2739 30.5079 72.0813 30.6403C71.8928 30.7686 71.6923 30.8609 71.4797 30.917C71.2711 30.9732 71.0706 31.0013 70.878 31.0013C70.5692 31.0013 70.2964 30.9612 70.0558 30.8809C69.8151 30.8007 69.6146 30.6924 69.4541 30.556C69.2937 30.4197 69.1733 30.2632 69.0891 30.0868C69.0089 29.9103 68.9688 29.7258 68.9688 29.5332V26.5169C68.9688 26.4327 68.9567 26.3645 68.9287 26.3084C68.9006 26.2522 68.8444 26.2001 68.7602 26.1519C68.7 26.1198 68.6238 26.0918 68.5276 26.0717C68.4353 26.0517 68.3591 26.0396 68.2949 26.0356V25.7789H70.4047V26.0356C70.3406 26.0356 70.2563 26.0477 70.156 26.0677C70.0558 26.0878 69.9836 26.1038 69.9354 26.1199C69.8552 26.1479 69.8031 26.1961 69.775 26.2642C69.7469 26.3324 69.7349 26.4046 69.7349 26.4849V29.3006C69.7349 29.437 69.7509 29.5814 69.779 29.7298C69.8071 29.8782 69.8672 30.0186 69.9555 30.1469C70.0477 30.2793 70.1761 30.3876 70.3405 30.4718C70.501 30.556 70.7216 30.5962 71.0064 30.5962C71.2711 30.5962 71.4917 30.556 71.6722 30.4718C71.8527 30.3876 71.9931 30.2753 72.0974 30.1389C72.1977 30.0105 72.2658 29.8742 72.306 29.7338C72.3461 29.5934 72.3661 29.449 72.3661 29.3046V27.2149C72.3661 26.9501 72.3461 26.7295 72.31 26.5611C72.2699 26.3926 72.2137 26.2803 72.1415 26.2281C72.0573 26.168 71.941 26.1199 71.7966 26.0878C71.6522 26.0557 71.5398 26.0356 71.4636 26.0316V25.7749H73.5534V26.0316V26.0396Z" fill="#231815"/>
<path d="M79.2925 26.0394C79.2243 26.0394 79.12 26.0595 78.9797 26.0956C78.8393 26.1317 78.739 26.1718 78.6788 26.2079C78.5946 26.268 78.5344 26.3804 78.5023 26.5528C78.4743 26.7253 78.4582 26.9379 78.4582 27.2026V30.9449H78.1413L75.0448 26.7654V29.4007C75.0448 29.6975 75.0649 29.9221 75.101 30.0785C75.1371 30.239 75.1932 30.3513 75.2735 30.4155C75.3256 30.4676 75.4419 30.5197 75.6104 30.5639C75.7829 30.608 75.8952 30.632 75.9513 30.6361V30.8928H73.8616V30.6361C73.9257 30.632 74.0341 30.608 74.1865 30.5679C74.3389 30.5238 74.4352 30.4877 74.4713 30.4556C74.5555 30.3874 74.6116 30.2871 74.6437 30.1467C74.6718 30.0063 74.6919 29.7737 74.6919 29.4408V26.9259C74.6919 26.8135 74.6718 26.7053 74.6357 26.5929C74.5996 26.4846 74.5475 26.3964 74.4833 26.3362C74.3991 26.256 74.2827 26.1878 74.1343 26.1317C73.9859 26.0755 73.8696 26.0474 73.7773 26.0394V25.7827H75.2333L78.1052 29.6774V27.2467C78.1052 26.9499 78.0852 26.7213 78.0491 26.5609C78.009 26.4004 77.9568 26.2961 77.8846 26.244C77.8164 26.1999 77.7082 26.1517 77.5557 26.1116C77.4033 26.0675 77.291 26.0474 77.2108 26.0394V25.7827H79.2885V26.0394H79.2925Z" fill="#231815"/>
<path d="M81.7927 30.8888H79.4903V30.6321C79.5545 30.628 79.6468 30.62 79.7711 30.612C79.8955 30.6 79.9797 30.5879 80.0318 30.5679C80.112 30.5358 80.1682 30.4957 80.2043 30.4395C80.2404 30.3874 80.2564 30.3112 80.2564 30.2149V26.5167C80.2564 26.4325 80.2444 26.3643 80.2163 26.3082C80.1883 26.252 80.1281 26.2039 80.0278 26.1638C79.9556 26.1357 79.8634 26.1076 79.7551 26.0835C79.6468 26.0595 79.5545 26.0434 79.4863 26.0394V25.7827H81.7887V26.0394C81.7125 26.0394 81.6242 26.0515 81.5239 26.0675C81.4196 26.0835 81.3314 26.1036 81.2552 26.1277C81.1629 26.1557 81.1028 26.2039 81.0707 26.268C81.0386 26.3322 81.0226 26.4044 81.0226 26.4846V30.1788C81.0226 30.259 81.0386 30.3272 81.0747 30.3914C81.1108 30.4516 81.171 30.4997 81.2552 30.5358C81.3073 30.5558 81.3876 30.5759 81.4999 30.6C81.6162 30.624 81.7125 30.6361 81.7887 30.6361V30.8928L81.7927 30.8888Z" fill="#231815"/>
<path d="M87.1847 26.0396C87.1206 26.0396 87.0484 26.0557 86.9561 26.0797C86.8679 26.1038 86.7957 26.1359 86.7355 26.172C86.6513 26.2241 86.5871 26.2883 86.539 26.3645C86.4908 26.4447 86.4427 26.537 86.3946 26.6453C86.2341 27.0263 85.9935 27.62 85.6686 28.4262C85.3477 29.2324 85.0148 30.0747 84.6738 30.9491H84.373C84.028 30.0226 83.6951 29.1281 83.3742 28.2658C83.0534 27.4034 82.8328 26.8218 82.7204 26.521C82.6924 26.4447 82.6523 26.3806 82.6041 26.3244C82.556 26.2683 82.4918 26.2161 82.4156 26.164C82.3514 26.1239 82.2792 26.0918 82.199 26.0717C82.1188 26.0517 82.0466 26.0396 81.9824 26.0356V25.7789H84.0922V26.0356C83.9117 26.0436 83.7633 26.0637 83.639 26.0878C83.5146 26.1158 83.4545 26.16 83.4545 26.2281C83.4545 26.2562 83.4545 26.2883 83.4705 26.3204C83.4785 26.3565 83.4866 26.3846 83.4946 26.4086C83.5828 26.6453 83.7272 27.0263 83.9278 27.5598C84.1283 28.0933 84.4091 28.8514 84.7781 29.8301C84.9626 29.3848 85.1712 28.8594 85.4078 28.2577C85.6445 27.6521 85.8049 27.2389 85.8892 27.0103C85.9654 26.7937 86.0135 26.6413 86.0255 26.5571C86.0376 26.4728 86.0456 26.4046 86.0456 26.3525C86.0456 26.2963 86.0215 26.2522 85.9734 26.2121C85.9253 26.176 85.8571 26.1439 85.7769 26.1158C85.6966 26.0918 85.6164 26.0717 85.5362 26.0597C85.456 26.0477 85.3717 26.0396 85.2875 26.0316V25.7749H87.1887V26.0316L87.1847 26.0396Z" fill="#231815"/>
<path d="M91.6677 29.3886L91.5715 30.8928H87.3398V30.6361C87.412 30.632 87.5083 30.62 87.6286 30.604C87.749 30.5879 87.8252 30.5719 87.8613 30.5558C87.9375 30.5197 87.9896 30.4716 88.0217 30.4155C88.0538 30.3593 88.0658 30.2831 88.0658 30.1948V26.5248C88.0658 26.4445 88.0538 26.3763 88.0257 26.3162C87.9977 26.256 87.9455 26.2039 87.8613 26.1678C87.7971 26.1357 87.7089 26.1076 87.6006 26.0835C87.4923 26.0595 87.404 26.0474 87.3398 26.0394V25.7827H91.2827V27.0101H91.018C90.9698 26.8336 90.8655 26.6411 90.7091 26.4405C90.5487 26.24 90.3963 26.1277 90.2559 26.1116C90.1837 26.1036 90.0914 26.0956 89.9911 26.0916C89.8868 26.0876 89.7705 26.0835 89.6382 26.0835H88.836V28.0971H89.4095C89.594 28.0971 89.7264 28.081 89.8106 28.0449C89.8949 28.0128 89.9711 27.9527 90.0353 27.8725C90.0874 27.8043 90.1315 27.712 90.1676 27.5957C90.2037 27.4794 90.2318 27.3711 90.2438 27.2668H90.5086V29.2723H90.2438C90.2358 29.156 90.2077 29.0357 90.1676 28.9073C90.1275 28.779 90.0834 28.6867 90.0393 28.6265C89.9631 28.5343 89.8788 28.4741 89.7866 28.442C89.6943 28.414 89.57 28.3979 89.4135 28.3979H88.84V29.9221C88.84 30.0745 88.852 30.1948 88.8721 30.2831C88.8921 30.3713 88.9362 30.4395 88.9964 30.4836C89.0566 30.5278 89.1448 30.5599 89.2491 30.5719C89.3574 30.5839 89.5098 30.5919 89.7063 30.5919H90.0192C90.1476 30.5919 90.2559 30.5919 90.3441 30.5759C90.4364 30.5679 90.5286 30.5478 90.6249 30.5238C90.7211 30.4997 90.7893 30.4676 90.8294 30.4235C90.9377 30.3072 91.0541 30.1347 91.1744 29.902C91.2947 29.6694 91.3709 29.4969 91.407 29.3886H91.6718H91.6677Z" fill="#231815"/>
<path d="M97.1746 30.8889H95.7908C95.486 30.4156 95.2132 30.0024 94.9686 29.6575C94.7239 29.3125 94.4592 28.9555 94.1704 28.5865H93.6449V30.195C93.6449 30.2792 93.657 30.3514 93.685 30.4156C93.7131 30.4797 93.7653 30.5279 93.8535 30.56C93.8976 30.576 93.9698 30.592 94.0781 30.6041C94.1864 30.6201 94.2787 30.6281 94.3509 30.6281V30.8849H92.209V30.6281C92.2651 30.6241 92.3494 30.6161 92.4537 30.6041C92.562 30.592 92.6342 30.576 92.6783 30.56C92.7465 30.5279 92.7986 30.4837 92.8307 30.4236C92.8628 30.3634 92.8788 30.2872 92.8788 30.195V26.5048C92.8788 26.4206 92.8668 26.3484 92.8427 26.2802C92.8187 26.216 92.7625 26.1679 92.6783 26.1318C92.6181 26.1117 92.5419 26.0917 92.4496 26.0716C92.3574 26.0516 92.2732 26.0435 92.209 26.0355V25.7788H94.5635C94.7801 25.7788 94.9806 25.7989 95.1691 25.847C95.3576 25.8911 95.5301 25.9633 95.6825 26.0636C95.8309 26.1599 95.9473 26.2842 96.0395 26.4406C96.1278 26.593 96.1719 26.7816 96.1719 27.0022C96.1719 27.1987 96.1398 27.3712 96.0796 27.5236C96.0195 27.676 95.9312 27.8084 95.8109 27.9167C95.7026 28.021 95.5742 28.1092 95.4218 28.1854C95.2694 28.2616 95.1009 28.3258 94.9204 28.378C95.1731 28.7109 95.3817 28.9916 95.5502 29.2203C95.7146 29.4489 95.9192 29.7257 96.1639 30.0506C96.2681 30.195 96.3644 30.2992 96.4486 30.3674C96.5329 30.4356 96.6171 30.4918 96.7013 30.5319C96.7655 30.564 96.8417 30.588 96.934 30.6041C97.0302 30.6201 97.1065 30.6322 97.1706 30.6322V30.8889H97.1746ZM95.2854 27.0864C95.2854 26.7776 95.1972 26.5329 95.0167 26.3524C94.8362 26.1719 94.5835 26.0796 94.2586 26.0796H93.6449V28.2656H94.1182C94.4511 28.2656 94.7319 28.1614 94.9525 27.9488C95.1731 27.7362 95.2854 27.4474 95.2854 27.0864Z" fill="#231815"/>
<path d="M100.55 28.5542C100.658 28.6746 100.739 28.8069 100.791 28.9473C100.843 29.0917 100.867 29.2562 100.867 29.4487C100.867 29.9019 100.703 30.275 100.366 30.5678C100.033 30.8606 99.6196 31.009 99.1263 31.009C98.8977 31.009 98.673 30.9729 98.4444 30.8927C98.2158 30.8165 98.0192 30.7282 97.8548 30.6279L97.6984 30.8927H97.4096L97.3574 29.1439H97.6462C97.7064 29.3605 97.7786 29.557 97.8588 29.7335C97.939 29.906 98.0433 30.0704 98.1757 30.2228C98.3 30.3672 98.4484 30.4795 98.6169 30.5638C98.7853 30.648 98.9779 30.6921 99.1985 30.6921C99.3629 30.6921 99.5113 30.6721 99.6317 30.6279C99.756 30.5838 99.8563 30.5237 99.9325 30.4434C100.009 30.3632 100.065 30.271 100.105 30.1627C100.141 30.0544 100.161 29.934 100.161 29.7936C100.161 29.5891 100.105 29.4006 99.9887 29.2241C99.8723 29.0476 99.7039 28.9152 99.4752 28.823C99.3188 28.7588 99.1423 28.6906 98.9418 28.6184C98.7412 28.5422 98.5647 28.47 98.4203 28.4058C98.1315 28.2775 97.9069 28.105 97.7505 27.8964C97.5901 27.6838 97.5098 27.4111 97.5098 27.0702C97.5098 26.8736 97.5499 26.6931 97.6302 26.5247C97.7064 26.3562 97.8227 26.2078 97.9671 26.0754C98.1075 25.9511 98.2679 25.8508 98.4605 25.7826C98.649 25.7104 98.8455 25.6743 99.0541 25.6743C99.2867 25.6743 99.4993 25.7104 99.6838 25.7826C99.8683 25.8548 100.037 25.939 100.189 26.0353L100.338 25.7906H100.626L100.658 27.4873H100.37C100.318 27.2948 100.257 27.1063 100.193 26.9298C100.129 26.7533 100.041 26.5928 99.9365 26.4484C99.8322 26.3121 99.7079 26.1998 99.5595 26.1155C99.4111 26.0313 99.2266 25.9912 99.014 25.9912C98.7854 25.9912 98.5928 26.0634 98.4324 26.2118C98.2719 26.3562 98.1917 26.5367 98.1917 26.7493C98.1917 26.9619 98.2439 27.1544 98.3481 27.2988C98.4524 27.4432 98.6008 27.5635 98.7974 27.6558C98.9699 27.74 99.1423 27.8122 99.3148 27.8724C99.4833 27.9325 99.6477 28.0007 99.8042 28.0689C99.9486 28.1331 100.085 28.2013 100.217 28.2815C100.35 28.3617 100.466 28.454 100.566 28.5623L100.55 28.5542Z" fill="#231815"/>
<path d="M103.73 30.8888H101.428V30.6321C101.492 30.628 101.588 30.62 101.709 30.612C101.829 30.6 101.917 30.5879 101.969 30.5679C102.05 30.5358 102.106 30.4957 102.142 30.4395C102.178 30.3874 102.194 30.3112 102.194 30.2149V26.5167C102.194 26.4325 102.182 26.3643 102.154 26.3082C102.126 26.252 102.066 26.2039 101.965 26.1638C101.893 26.1357 101.801 26.1076 101.693 26.0835C101.584 26.0595 101.492 26.0434 101.424 26.0394V25.7827H103.726V26.0394C103.65 26.0394 103.562 26.0515 103.461 26.0675C103.357 26.0835 103.269 26.1036 103.193 26.1277C103.1 26.1557 103.04 26.2039 103.008 26.268C102.976 26.3322 102.96 26.4044 102.96 26.4846V30.1788C102.96 30.259 102.976 30.3272 103.012 30.3914C103.048 30.4516 103.108 30.4997 103.193 30.5358C103.245 30.5558 103.325 30.5759 103.441 30.6C103.554 30.624 103.65 30.6361 103.73 30.6361V30.8928V30.8888Z" fill="#231815"/>
<path d="M108.532 27.1705H108.288C108.268 27.0823 108.228 26.978 108.171 26.8617C108.115 26.7414 108.051 26.629 107.983 26.5248C107.911 26.4165 107.83 26.3162 107.746 26.232C107.662 26.1477 107.578 26.0996 107.498 26.0876C107.425 26.0795 107.329 26.0715 107.217 26.0675C107.104 26.0635 107 26.0595 106.904 26.0595H106.695V30.1467C106.695 30.2269 106.711 30.2991 106.744 30.3633C106.78 30.4275 106.836 30.4796 106.92 30.5157C106.964 30.5318 107.052 30.5558 107.193 30.5839C107.329 30.612 107.437 30.628 107.514 30.6321V30.8888H105.103V30.6321C105.171 30.628 105.271 30.616 105.408 30.604C105.544 30.5879 105.64 30.5719 105.693 30.5518C105.773 30.5197 105.829 30.4756 105.865 30.4155C105.901 30.3553 105.921 30.2791 105.921 30.1788V26.0595H105.713C105.636 26.0595 105.544 26.0595 105.436 26.0635C105.324 26.0635 105.219 26.0755 105.119 26.0876C105.039 26.0996 104.959 26.1437 104.874 26.232C104.79 26.3162 104.71 26.4124 104.638 26.5248C104.566 26.6331 104.501 26.7494 104.449 26.8697C104.393 26.99 104.357 27.0903 104.333 27.1705H104.076V25.7827H108.532V27.1705Z" fill="#231815"/>
<path d="M113.745 26.0396C113.704 26.0396 113.64 26.0597 113.552 26.0878C113.464 26.1158 113.4 26.1479 113.364 26.176C113.271 26.2322 113.207 26.2803 113.175 26.3084C113.143 26.3405 113.075 26.4207 112.978 26.553C112.794 26.8178 112.622 27.0865 112.461 27.3552C112.301 27.624 112.104 27.9689 111.867 28.3901C111.779 28.5425 111.719 28.6669 111.691 28.7591C111.663 28.8514 111.647 28.9877 111.647 29.1642V30.1389C111.647 30.2231 111.663 30.2993 111.699 30.3635C111.735 30.4277 111.791 30.4798 111.875 30.5159C111.924 30.536 112.016 30.556 112.144 30.5841C112.273 30.6122 112.377 30.6282 112.457 30.6282V30.885H110.07V30.6282C110.139 30.6242 110.239 30.6162 110.371 30.6002C110.508 30.5881 110.6 30.5681 110.652 30.548C110.736 30.5119 110.796 30.4638 110.829 30.3996C110.861 30.3354 110.877 30.2592 110.877 30.171V28.9316C110.877 28.8955 110.853 28.8233 110.809 28.723C110.76 28.6187 110.704 28.5064 110.64 28.3821C110.496 28.1013 110.335 27.8045 110.163 27.4796C109.99 27.1547 109.838 26.8779 109.709 26.6493C109.629 26.5129 109.561 26.4086 109.497 26.3405C109.437 26.2723 109.365 26.2081 109.288 26.1559C109.232 26.1198 109.164 26.0918 109.084 26.0717C109.004 26.0517 108.931 26.0436 108.867 26.0356V25.7789H111.045V26.0356C110.801 26.0396 110.628 26.0557 110.528 26.0838C110.427 26.1118 110.375 26.1519 110.375 26.2081C110.375 26.2241 110.383 26.2482 110.395 26.2843C110.411 26.3204 110.431 26.3645 110.456 26.4207C110.488 26.4808 110.524 26.553 110.564 26.6333C110.608 26.7135 110.648 26.7897 110.684 26.8659C110.796 27.0785 110.909 27.2911 111.025 27.5037C111.141 27.7162 111.294 27.993 111.482 28.3299C111.859 27.7243 112.148 27.2469 112.349 26.91C112.549 26.5691 112.646 26.3685 112.646 26.3003C112.646 26.2442 112.626 26.2001 112.585 26.168C112.545 26.1359 112.493 26.1078 112.425 26.0878C112.353 26.0677 112.281 26.0557 112.196 26.0517C112.116 26.0477 112.04 26.0396 111.972 26.0316V25.7749H113.745V26.0316V26.0396Z" fill="#231815"/>
<path d="M55.5187 15.5061C55.3743 15.5221 55.2259 15.5341 55.0815 15.5502C54.6724 15.6705 54.2312 15.835 53.7659 15.9874C53.2926 16.1438 52.6067 16.4045 52.1013 16.0315C52.0652 15.9874 52.0853 16.0195 52.0572 15.9433C52.5104 15.4579 52.4984 15.1691 53.1963 14.8483C53.2084 14.3669 53.3929 13.7974 53.1522 13.4885C53.2043 12.7705 54.0507 13.1195 54.6884 12.9631C55.0775 12.8668 55.5548 12.7264 55.8717 12.5259C56.2447 12.2892 56.6217 11.7758 56.7942 11.3426C56.8624 11.1621 56.7822 10.7971 56.8825 10.6407V10.2877C56.8504 10.2235 55.7634 9.86656 55.611 9.76227C55.4987 9.68606 55.2219 9.45342 55.1738 9.32507C55.1336 9.20875 55.1818 9.09243 55.1296 9.01622C55.0775 8.90792 55.0294 8.91594 54.9532 8.83973C54.7325 8.85979 54.6684 8.936 54.5721 9.02023C54.544 9.04831 54.4879 9.06836 54.4678 9.10446C54.4478 9.14056 54.4678 9.17666 54.4678 9.21677V10.2877C54.3635 10.5244 53.8862 10.6607 53.6776 10.8132C53.5012 11.0017 53.3247 11.1942 53.1522 11.3827C52.8915 11.3587 52.8714 11.2704 52.715 11.1621C52.3339 9.38924 52.1695 7.90917 50.9622 6.99867C50.6694 6.77806 50.4448 6.34086 50.0838 6.2085C49.9554 6.55746 49.791 6.92246 49.6907 7.27944C49.6666 7.36367 49.7027 7.43186 49.6786 7.51609C49.4621 8.33033 49.2936 9.16061 49.073 10.023C49.0208 10.2275 48.7722 11.3306 48.8083 11.5151C48.9968 12.3895 49.2414 13.5046 49.4661 14.3228C49.5703 14.7039 49.4901 14.9806 49.5984 15.3296C49.795 15.9673 50.3605 17.6119 50.8258 17.9167C51.3472 18.2616 52.2096 18.4221 52.8875 18.1373C53.096 18.0491 53.2765 17.7522 53.4129 17.7001H54.0707C54.7125 17.5236 55.3583 17.3511 56 17.1747C56.2287 17.0784 56.8022 16.7736 56.9627 16.6051C57.1953 16.3684 57.2114 15.8991 57.4881 15.6424C57.4921 15.3256 57.46 15.1972 57.3558 15.0288C56.5455 15.0488 56.0722 15.3015 55.5147 15.5101L55.5187 15.5061Z" fill="#9B0000"/>
<path d="M45.8297 9.76233C45.8257 9.17672 45.8417 8.51089 45.7414 8.04962C45.6572 7.66858 45.8297 7.18324 45.6973 6.86637C45.2962 5.91977 43.5755 5.07745 42.6289 4.58811C42.2639 4.39959 42.2599 4.03458 41.7505 3.9303C41.6341 3.90623 41.3975 4.16294 41.4015 4.23915C41.3774 4.84481 41.8347 5.08146 42.1475 5.46652C42.3361 5.70317 42.4484 5.97191 42.6289 6.21257C42.9096 6.5856 43.3829 6.91049 43.5514 7.39583C43.8201 8.17798 43.8282 10.1554 43.6396 11.0338V11.9122C43.6116 12.2492 43.5795 12.5861 43.5514 12.923C43.3067 12.8308 43.1463 12.5861 42.8936 12.4818C42.7051 12.4537 42.5125 12.4216 42.324 12.3936C42.1475 12.2853 42.0312 12.0807 41.7986 11.9965C41.5339 11.9042 41.2892 12.0085 41.0084 11.9082C40.7036 11.7999 40.6073 11.5593 40.13 11.5593C40.0337 11.5753 39.8492 11.7197 39.8653 11.7799C39.9294 12.1529 40.2423 12.3374 40.3466 12.6583V13.0073C40.4188 13.284 40.499 13.6651 40.5632 13.9739C40.6755 14.4753 40.3506 14.7601 40.2543 15.0689C39.8693 16.3244 39.6447 17.5919 38.662 18.2417C38.6259 18.2657 38.5978 18.2938 38.5697 18.3379C38.5456 18.378 38.5416 18.4863 38.5416 18.5104C38.5176 19.2324 38.4053 20.6402 39.0711 20.8609C39.0952 20.8769 39.1353 20.905 39.1353 20.905C39.2034 20.9371 39.7971 20.9331 39.9014 20.905C40.138 20.7846 40.5592 20.171 40.8199 19.9824C41.217 19.6977 41.6462 19.5131 42.0473 19.2364C42.1195 19.1481 42.1917 19.0599 42.2679 18.9717C42.669 18.6708 43.0621 18.362 43.407 18.005C43.4511 17.9849 43.5113 17.9769 43.5394 18.005C43.5715 18.1534 43.6356 18.4823 43.5394 18.6187C43.5313 19.3728 43.4511 19.9102 43.76 20.3715C43.9325 20.3755 44.1851 20.3956 44.2854 20.3274C44.6304 20.199 44.7988 19.6174 44.9432 19.2765C45.3203 18.3901 45.4085 17.3472 45.6452 16.2963C45.6612 15.9313 45.6732 15.5663 45.6893 15.2013C45.9059 14.2146 45.8658 13.0032 45.8658 11.8681C45.8818 11.4149 45.8938 10.9616 45.9099 10.5084C45.8658 10.2918 45.8257 10.0271 45.8216 9.76233H45.8297ZM43.5474 16.1198V16.6894C43.4632 16.8699 43.058 17.0143 42.8896 17.1266C42.7412 17.2269 42.5727 17.4033 42.4083 17.4755C42.0994 17.6119 41.8387 17.6199 41.574 17.7844C41.3373 17.9328 41.0686 18.1534 40.8279 18.3098C40.6474 18.4262 40.0217 18.6789 39.7329 18.4863C39.6888 18.4703 39.6447 18.4582 39.6005 18.4422C39.6326 17.9689 39.9736 17.7563 40.1701 17.4314C40.5552 16.8017 41.0565 16.2883 41.4416 15.6786C41.4697 15.5743 41.5018 15.474 41.5298 15.3698C41.6702 15.1532 41.955 14.9727 42.0553 14.7119C42.8214 14.728 43.2305 14.3389 43.3709 13.7453C43.4832 13.7533 43.5193 13.7653 43.5915 13.7894C43.6035 14.2788 43.6076 14.8483 43.5915 15.3256C43.5835 15.5623 43.6477 15.9594 43.5474 16.1158V16.1198Z" fill="#9B0000"/>
<path d="M101.914 7.87746C102.054 8.06598 102.303 8.21438 102.439 8.4029C102.9 9.04467 103.021 10.3683 103.273 11.2106C104.059 11.2026 104.396 10.5207 104.765 10.0715C104.765 8.9845 103.65 7.3119 103.013 6.87069C102.644 6.61799 102.202 6.50569 101.829 6.257C101.432 5.99628 101.216 5.61524 100.734 5.42271C100.67 5.40265 100.526 5.55507 100.514 5.59919V6.30112C100.674 6.43349 100.835 6.56585 100.995 6.6942C101.308 7.10734 101.609 7.46432 101.918 7.87746H101.914Z" fill="#9B0000"/>
<path d="M111.294 9.1048C111.976 8.22238 112.887 7.40814 113.312 6.29708C113.432 5.98021 113.962 5.20608 113.621 4.76086C113.468 4.53624 113.047 4.66861 112.742 4.58437C112.606 4.54827 112.506 4.39987 112.393 4.36377C112.193 4.3036 111.984 4.45602 111.868 4.49613C111.314 4.67262 110.837 4.72877 110.332 4.93333C110.107 5.02559 109.465 5.41065 109.193 5.24218C109.148 5.23015 109.104 5.21411 109.06 5.19806C109.108 4.35574 109.702 3.85838 109.983 3.18051C110.063 2.98397 110.316 2.45853 110.159 2.21385C110.135 1.82077 109.726 1.54802 109.501 1.33544C109.429 1.27527 109.1 1.38357 109.108 1.51192C109.124 2.62699 108.655 3.83832 108.013 4.27552C107.809 4.41591 107.628 4.35574 107.355 4.45201C106.922 4.60443 106.461 5.04163 105.952 4.66861C105.691 4.66861 105.655 4.70872 105.514 4.80097C105.563 5.23817 105.819 5.60317 106.172 5.71949C106.26 5.76763 106.577 5.72351 106.786 5.71949C106.778 6.06043 106.509 6.35725 106.305 6.50967C106.305 6.65808 106.317 6.77038 106.349 6.86264C106.822 6.95088 106.91 6.7022 107.355 6.68615C107.283 7.18352 106.882 7.42017 106.654 7.78116C106.357 7.84133 105.92 7.88144 105.647 7.91353C105.623 7.91353 105.599 7.94562 105.603 7.95765C105.611 8.29056 105.739 8.40688 105.952 8.52722C105.831 8.98447 105.462 9.30535 105.206 9.66635C105.105 9.80673 104.812 10.0033 104.985 10.28C105.045 10.3843 105.117 10.3883 105.25 10.4124C105.691 9.98723 106.441 9.78668 106.654 9.1409C107.351 9.18502 107.347 9.35349 107.749 9.62223C107.729 9.87091 107.612 10.1236 107.484 10.28C107.484 10.4485 107.492 10.613 107.528 10.7172C108.049 10.6932 108.836 10.0033 109.193 10.2359H109.281C109.217 10.5327 108.888 10.5408 108.667 10.6731C108.202 10.9619 107.644 11.1504 107.131 11.4192C106.437 11.7842 105.667 12.1933 105.025 12.6024C104.837 12.6626 104.644 12.7187 104.456 12.7789C103.413 13.3966 102.422 14.1627 101.343 14.7523C101.315 14.8285 101.335 14.7965 101.299 14.8406C101.299 14.977 101.315 15.0652 101.343 15.1494C102.679 15.4302 103.746 14.8125 104.676 14.4475C105.928 13.9581 107.115 13.1399 108.142 12.3858C108.475 12.1412 108.715 11.732 109.06 11.5074C109.329 11.3309 109.57 11.2627 109.806 11.0702H110.027C109.951 11.3389 109.762 11.4432 109.63 11.6398C109.586 11.7561 109.541 11.8724 109.497 11.9887C109.265 12.2093 109.028 12.4299 108.795 12.6465C108.683 12.795 108.587 13.0196 108.446 13.1279C108.094 13.3966 107.704 13.6573 107.44 14.0063C107.404 14.0664 107.464 14.3031 107.484 14.4435C108.182 14.3873 108.591 13.9341 109.104 13.6974C109.421 13.553 109.766 13.525 110.071 13.3485C110.276 13.2322 110.376 12.9955 110.552 12.8671C111.407 12.2334 112.177 11.74 112 10.1918C111.784 10.1156 111.471 10.1035 111.298 9.97119H110.376C110.524 9.46179 111.022 9.45376 111.298 9.09277L111.294 9.1048ZM109.89 8.53524C109.722 8.75986 109.594 9.0326 109.453 9.28129C109.337 9.27327 109.305 9.26123 109.233 9.23717C109.104 8.59139 109.056 8.09804 108.84 7.6127C108.687 7.58462 108.607 7.56056 108.487 7.65682C108.23 7.87342 108.414 8.44699 108.094 8.70771C107.965 8.84008 107.632 8.34672 107.524 8.27051C107.604 7.33594 108.507 6.63401 108.972 6.03236C109.814 6.0484 110.42 6.46555 111.21 6.51368C111.186 7.55254 110.352 7.92155 109.894 8.53123L109.89 8.53524Z" fill="#9B0000"/>
<path d="M100.51 12.5701C100.622 12.8308 100.903 13.1236 100.991 13.4044C101.176 13.4405 101.268 13.4205 101.472 13.4044C101.813 13.0514 102.022 12.7346 102.13 12.1329C102.223 11.6155 101.164 10.3239 100.815 10.2036C100.726 10.1434 100.53 10.1555 100.377 10.1595C100.309 10.4603 100.478 11.3708 100.51 11.6957V12.5741V12.5701Z" fill="#9B0000"/>
<path d="M108.181 15.1136C107.844 15.5548 106.448 15.5307 105.859 15.7714C105.048 16.1043 104.182 16.377 103.36 16.734C102.814 16.9707 102.245 17.2996 101.695 17.5242C101.551 17.5523 101.402 17.5844 101.258 17.6124C101.021 17.7087 100.769 17.9574 100.556 18.0496C100.351 18.0657 100.147 18.0777 99.9423 18.0938C99.7217 18.194 99.6134 18.4066 99.4609 18.5751C99.473 19.3612 99.8781 19.5859 100.075 20.0271C100.115 20.1153 100.075 20.2076 100.163 20.3279C100.231 20.4001 100.428 20.4763 100.556 20.5044C100.865 20.5686 101.306 20.2878 101.523 20.1955C102.345 19.8426 102.955 19.2369 103.673 18.7917C103.929 18.6312 104.322 18.4427 104.595 18.3545C104.912 18.2502 105.149 18.3424 105.429 18.2221C105.939 18.0095 105.722 17.6646 106.48 17.9173C106.512 18.0336 106.585 18.1299 106.613 18.2221C106.697 18.5269 106.512 18.9 106.568 19.1446C106.629 19.4054 106.713 19.4615 106.701 19.8025C106.597 19.9148 106.56 20.1073 106.436 20.1955C106.063 20.4763 105.453 20.5886 104.944 20.721C104.595 20.8132 104.162 20.5726 103.893 20.7651H103.805C103.813 20.9135 103.825 20.9897 103.893 21.0699C104.021 21.467 104.266 21.3347 104.683 21.463C105.088 21.5914 105.522 22.165 106.22 21.7679C106.368 21.6836 106.42 21.4751 106.613 21.4189C106.958 21.3186 107.27 21.4831 107.491 21.2865C107.7 21.1822 107.736 20.9215 107.84 20.717C107.932 20.5365 108.093 20.2637 108.149 20.0592C108.229 19.7583 108.073 19.4856 108.016 19.3131C107.988 19.1366 107.956 18.9641 107.928 18.7877C107.764 18.3825 107.499 18.1579 107.491 17.5603C107.487 17.4921 107.563 17.4079 107.623 17.3838C108.113 17.2675 108.594 17.1512 109.248 17.1672C109.456 16.9546 109.745 16.8142 109.906 16.5535C110.01 16.3851 110.014 16.1444 110.126 15.984C110.126 15.5628 109.978 15.5187 109.821 15.282C109.188 15.274 108.803 15.1015 108.201 15.1055L108.181 15.1136Z" fill="#9B0000"/>
<path d="M92.307 9.59023C92.4313 9.40172 92.4353 9.23726 92.6158 9.10891C92.7522 9.01666 92.5757 8.5233 92.4835 8.49522C90.843 8.12621 90.7026 9.33754 89.8522 9.98733C89.4632 10.2841 89.022 10.4767 88.6249 10.7775H88.5366C88.3762 9.90309 88.4925 8.75193 88.4925 7.7973V6.65817C88.5246 6.57795 88.673 6.48169 88.7131 6.39344C88.8655 6.04448 88.7973 5.48695 88.6249 5.21019C88.3882 4.82513 87.8949 4.72485 87.5299 4.46414C87.3373 4.32776 87.1929 4.07908 86.9603 3.98281C86.6033 3.83441 86.2102 3.97479 85.9094 3.76221C85.7129 3.7943 85.6487 3.85847 85.5163 3.93869C85.1313 4.94546 86.0779 6.36537 86.3506 7.09537C86.5873 7.72912 86.5953 9.69853 86.4389 10.4285C86.3185 10.978 86.5111 11.8003 86.2182 12.1814C86.0498 12.41 84.6138 12.8953 84.2448 13.0598C83.936 13.1962 83.575 13.3847 83.2381 13.497C82.861 13.6213 82.504 13.6574 82.1872 13.8499C81.6978 14.1428 80.9197 14.6762 80.3902 14.8567C80.2298 14.8728 80.0693 14.8848 79.9089 14.9008C79.6843 14.973 79.3955 15.1014 79.1628 15.1656C79.0305 15.2017 78.85 15.2177 78.8139 15.2097C78.6534 15.0573 78.4489 14.8246 78.3326 14.6401C78.2684 14.5599 78.1962 14.5078 78.144 14.5439C78.112 14.5439 78.0759 14.584 78.0678 14.6842C78.0317 16.048 77.9315 16.3328 78.5492 17.2714C79.8287 17.5401 80.7472 16.9144 81.5735 16.3528C81.9385 16.1041 82.2955 15.9517 82.6685 15.695C82.9453 15.5025 83.1578 15.1616 83.4587 14.9931C83.591 14.965 83.7194 14.9369 83.8517 14.9048C84.4253 14.6762 85.019 14.3313 85.781 14.2912C85.773 15.7391 84.5336 17.2192 83.6311 17.8008C83.4948 17.8891 83.3504 17.9933 83.1899 18.0615C83.0174 18.1377 82.857 18.2139 82.7126 18.2821C82.5963 18.2982 82.48 18.3102 82.3636 18.3263C82.1511 18.4305 81.8623 18.6151 81.6617 18.7635C81.3689 18.9841 81.405 19.1926 81.2245 19.4654V19.5536C83.567 19.5376 85.0149 18.5148 86.3105 17.4478C86.7958 17.0467 87.4015 16.6978 87.6702 16.0881C87.9951 15.3581 88.1115 14.4596 88.3281 13.6775C88.3722 13.3726 88.4163 13.0638 88.4604 12.7589C88.5888 12.5303 89.2305 12.1854 89.4672 12.0129C89.6998 11.8444 89.8924 11.5717 90.125 11.3992C90.5943 11.0543 91.0636 10.7414 91.5289 10.3884C91.7775 10.1999 92.1466 9.86298 92.319 9.59826L92.307 9.59023Z" fill="#9B0000"/>
<path d="M92.4003 16.2083C91.9671 15.8714 91.7866 15.37 90.9964 15.374C90.9563 15.4142 90.9202 15.4342 90.864 15.4623C90.84 16.4971 90.9763 16.6415 91.2571 17.3916C91.2852 17.524 91.3133 17.6563 91.3454 17.7887C91.4497 17.9892 91.8588 18.4545 91.6061 18.8396C91.6542 19.2407 92.3281 19.3851 92.7893 19.2327C93.2827 19.0722 93.7961 18.7273 94.105 18.3542C94.1009 17.2191 93.0541 16.7218 92.3963 16.2043L92.4003 16.2083Z" fill="#9B0000"/>
<path d="M67.6241 2.61496C67.6842 2.65908 67.7404 2.7032 67.8006 2.74732C67.961 2.97996 68.1535 3.36101 68.2378 3.62574C68.4183 4.17926 68.4664 5.10982 68.0613 5.37856C68.0011 5.41065 68.0492 5.81977 68.1936 5.81576C68.8916 5.73153 69.5935 5.24218 69.8622 4.72075C71.0736 4.75284 71.7434 4.40388 71.6592 3.18452C71.5429 3.06018 71.4867 2.8476 71.3503 2.74732C70.9893 2.47457 70.5802 2.19781 70.2112 1.95715C70.0387 1.84484 69.8181 1.84484 69.6416 1.73654C69.0199 1.3595 68.5185 0.970435 67.4917 0.99049C66.9863 1.59214 67.2992 1.5761 67.5358 2.0855C67.5639 2.26199 67.596 2.43446 67.6241 2.61095V2.61496Z" fill="#9B0000"/>
<path d="M66.6559 10.6408C66.9848 10.725 67.751 10.5566 68.0157 10.4643C68.7497 10.2156 69.5278 8.91203 70.1656 8.44675C70.5908 8.1379 71.0721 7.68064 71.5695 7.4841C71.758 7.45602 71.9505 7.42394 72.139 7.39586C72.3275 7.1913 72.5201 6.98673 72.7086 6.78217C72.6966 6.52948 72.6364 6.33695 72.5321 6.34497H72.0067C71.778 6.49338 71.3569 6.43722 71.0841 6.52145C70.5868 6.67387 70.0653 6.9025 69.592 7.05091C69.4597 7.06294 69.3273 7.07899 69.1989 7.09503C67.7469 7.64053 66.2388 8.26625 64.859 8.84785C64.7667 9.06445 64.5742 9.39736 64.7708 9.63802C64.9232 10.0752 66.1546 10.5164 66.6559 10.6448V10.6408Z" fill="#9B0000"/>
<path d="M71.0418 14.5436C70.5043 14.5436 70.023 14.4313 69.5497 14.5877C69.3251 14.6599 69.2208 14.8444 68.9801 14.8925C69.0282 14.6078 69.5818 14.2668 69.7703 14.0582C69.9227 13.8898 70.0711 13.6692 70.2516 13.5328C70.404 13.4165 70.6166 13.3322 70.7329 13.1838C70.8091 13.0836 70.8573 12.9111 70.9535 12.8309C71.0257 12.8148 71.102 12.8028 71.1742 12.7867C71.2865 12.6865 71.3145 12.4859 71.4389 12.3937C71.8079 12.1169 72.1609 12.0567 72.4055 11.6476C72.4537 11.5634 72.3654 11.3789 72.2732 11.2987C71.9844 11.066 70.5524 10.8775 70.035 11.0339C69.7743 11.1141 69.4133 11.2706 69.2007 11.427C69.1285 11.5273 69.0523 11.6316 68.9801 11.7359C68.7595 11.7639 68.5429 11.792 68.3223 11.8241C68.0576 11.9845 67.833 12.3014 67.5763 12.4819C67.0468 12.8549 66.4812 13.1678 65.9117 13.4887C65.663 13.6331 65.3742 13.0394 65.2098 12.9191C65.1015 12.8389 64.9611 12.8269 64.8608 12.7426C64.7605 12.7506 64.7364 12.7506 64.6843 12.7867C64.584 12.8188 64.584 12.8309 64.5078 12.875C64.4878 13.1879 64.6281 13.5609 64.5519 13.8818C64.3795 14.6037 64.0626 15.9314 64.3313 16.7737C64.3755 16.9101 64.5359 17.0786 64.5961 17.2109C64.6683 17.3754 64.6402 17.5358 64.7284 17.6922C64.8528 17.9169 65.1576 17.9891 65.2539 18.2618C65.6349 18.1856 66.3007 16.9783 66.5976 16.509V16.505C66.6617 16.3927 66.6537 16.3205 66.6537 16.2443V16.2322V15.1492C66.7981 15.1131 67.0909 15.057 67.2233 14.9728C67.4319 14.9728 67.5 14.9968 67.6164 15.061C67.6043 15.1974 67.115 16.3887 67.0468 16.4649C67.0789 16.7697 67.2794 16.874 67.5281 16.9462C67.4519 17.5438 66.7861 17.6722 66.389 17.953C65.9157 18.2859 65.3983 18.6549 64.8969 18.9637C64.7003 19.0841 64.4797 19.1041 64.2832 19.2285C64.1629 19.3047 64.0546 19.4611 63.9342 19.5333C63.7257 19.6576 63.5091 19.6657 63.3206 19.798C63.2283 19.8662 63.1882 20.0226 63.0598 20.0628C62.8793 20.1149 62.7349 19.9545 62.6226 19.9304C62.3499 19.8702 62.1614 20.0587 61.9648 20.1069C61.9127 21.1858 62.382 22.2889 63.5853 22.2969C64.1869 21.6591 64.8447 21.1217 65.3822 20.4117C65.5707 20.2513 65.7633 20.0908 65.9518 19.9304C66.0801 19.7379 66.1162 19.5694 66.2606 19.4049C66.3128 19.3448 66.409 19.3688 66.4772 19.3167C66.6377 19.1402 66.7981 18.9677 66.9586 18.7913C67.107 18.683 67.2474 18.6749 67.3556 18.5265C67.4479 18.5426 67.4399 18.5386 67.488 18.5707C67.6043 18.7231 67.6003 18.9798 67.7086 19.1402C67.7166 19.5333 67.7447 19.9825 67.488 20.1069C67.3556 20.135 67.2273 20.167 67.0949 20.1951C66.9866 20.2753 66.9505 20.4598 66.8342 20.5441V20.8088C66.8663 20.869 67.6364 21.1217 67.7527 21.2019C67.845 21.2661 68.0255 21.4867 68.0616 21.595V21.9921C68.1137 22.1124 68.3303 22.2608 68.4106 22.3851C68.5509 22.4172 68.8478 22.4774 68.9801 22.3851C69.0242 22.3691 69.0684 22.3571 69.1125 22.341C69.0924 20.9973 69.0122 19.7659 68.6312 18.7431C68.5028 18.3982 68.0175 17.7604 68.3263 17.2951C68.3263 16.6454 68.7756 16.8259 69.1606 16.5932C69.6981 16.2683 70.2797 15.9555 70.7811 15.5864C70.9776 15.4421 71.0618 15.1974 71.2183 15.0169C71.1862 14.8043 71.0979 14.712 71.0418 14.5356V14.5436Z" fill="#9B0000"/>
<path d="M73.5907 17.4799C73.1335 16.8501 72.6441 16.2726 71.5291 16.2966C71.4489 16.3488 71.2764 16.3448 71.132 16.3407C70.9114 17.2513 70.9394 17.9813 71.3967 18.6631C71.513 18.7674 71.6293 18.8677 71.7457 18.972C72.0024 19.357 72.1508 19.7341 72.6241 19.8945C73.1014 20.2034 73.671 19.6057 73.8956 19.4573C73.9598 19.2006 74.1763 18.3703 74.0279 18.1417C74.0079 17.7727 73.7512 17.7045 73.5907 17.4839V17.4799Z" fill="#9B0000"/>
</g>
<defs>
<clipPath id="clip0_1003_25196">
<rect width="113.745" height="32" fill="white"/>
</clipPath>
</defs>
</svg>
